<?xml version="1.0"?>
<!-- Generated by SVGo -->
<svg width="419.577mm" height="138.589mm"
     viewBox="0.000 0.000 419.577 138.589"
     xmlns="http://www.w3.org/2000/svg" 
     xmlns:xlink="http://www.w3.org/1999/xlink">
<polygon points="414.577,133.588 5.001,133.588 5.001,5.000 414.577,5.000" style="fill:none;stroke-width:0.050000mm;stroke:black"/>
<polygon points="274.225,117.062 274.225,131.062 288.225,131.062 288.225,117.062" style="fill:none;stroke-width:0.050000mm;stroke:black"/>
<polygon points="293.276,117.062 293.276,131.062 307.276,131.062 307.276,117.062" style="fill:none;stroke-width:0.050000mm;stroke:black"/>
<polygon points="312.326,117.062 312.326,131.062 326.326,131.062 326.326,117.062" style="fill:none;stroke-width:0.050000mm;stroke:black"/>
<polygon points="128.968,112.300 128.968,117.000 89.344,117.000 89.344,113.770 87.619,113.770 87.619,112.850 84.319,112.850 84.319,113.770 82.594,113.770 82.594,117.000 81.769,117.000 81.769,119.800 82.594,119.800 82.594,126.070 84.319,126.070 84.319,127.050 87.619,127.050 87.619,126.070 89.344,126.070 89.344,121.600 128.968,121.600 128.968,126.300 142.969,126.300 142.969,121.600 182.594,121.600 182.594,126.070 184.319,126.070 184.319,127.050 187.619,127.050 187.619,126.070 189.344,126.070 189.344,119.800 190.169,119.800 190.169,117.000 189.344,117.000 189.344,113.770 187.619,113.770 187.619,112.850 184.319,112.850 184.319,113.770 182.594,113.770 182.594,117.000 142.969,117.000 142.969,112.300" style="fill:none;stroke-width:0.050000mm;stroke:black"/>
<polygon points="9.907,112.300 9.907,126.300 23.907,126.300 23.907,112.300" style="fill:none;stroke-width:0.050000mm;stroke:black"/>
<polygon points="33.719,112.300 33.719,126.300 47.719,126.300 47.719,112.300" style="fill:none;stroke-width:0.050000mm;stroke:black"/>
<polygon points="57.532,112.300 57.532,126.300 71.532,126.300 71.532,112.300" style="fill:none;stroke-width:0.050000mm;stroke:black"/>
<polygon points="200.407,112.300 200.407,126.300 214.407,126.300 214.407,112.300" style="fill:none;stroke-width:0.050000mm;stroke:black"/>
<polygon points="224.219,112.300 224.219,126.300 238.219,126.300 238.219,112.300" style="fill:none;stroke-width:0.050000mm;stroke:black"/>
<polygon points="248.032,112.300 248.032,126.300 262.032,126.300 262.032,112.300" style="fill:none;stroke-width:0.050000mm;stroke:black"/>
<polygon points="336.138,112.300 336.138,126.300 350.138,126.300 350.138,112.300" style="fill:none;stroke-width:0.050000mm;stroke:black"/>
<polygon points="355.188,112.300 355.188,126.300 369.188,126.300 369.188,112.300" style="fill:none;stroke-width:0.050000mm;stroke:black"/>
<polygon points="398.051,112.300 398.051,126.300 412.051,126.300 412.051,112.300" style="fill:none;stroke-width:0.050000mm;stroke:black"/>
<polygon points="380.738,93.675 380.738,94.500 374.468,94.500 374.468,96.225 373.488,96.225 373.488,99.525 374.468,99.525 374.468,101.250 378.938,101.250 378.938,102.775 374.238,102.775 374.238,116.775 378.938,116.775 378.938,118.300 374.468,118.300 374.468,120.025 373.488,120.025 373.488,123.325 374.468,123.325 374.468,125.050 380.738,125.050 380.738,125.875 383.538,125.875 383.538,125.050 386.768,125.050 386.768,123.325 387.688,123.325 387.688,120.025 386.768,120.025 386.768,118.300 383.538,118.300 383.538,116.775 388.238,116.775 388.238,102.775 383.538,102.775 383.538,101.250 386.768,101.250 386.768,99.525 387.688,99.525 387.688,96.225 386.768,96.225 386.768,94.500 383.538,94.500 383.538,93.675" style="fill:none;stroke-width:0.050000mm;stroke:black"/>
<polygon points="293.276,98.012 293.276,112.012 307.276,112.012 307.276,98.012" style="fill:none;stroke-width:0.050000mm;stroke:black"/>
<polygon points="259.938,93.250 259.938,97.950 258.412,97.950 258.412,94.720 256.688,94.720 256.688,93.800 253.388,93.800 253.388,94.720 251.663,94.720 251.663,97.950 250.838,97.950 250.838,100.750 251.663,100.750 251.663,107.020 253.388,107.020 253.388,108.000 256.688,108.000 256.688,107.020 258.412,107.020 258.412,102.550 259.938,102.550 259.938,107.250 273.938,107.250 273.938,102.550 275.463,102.550 275.463,107.020 277.188,107.020 277.188,108.000 280.488,108.000 280.488,107.020 282.213,107.020 282.213,100.750 283.038,100.750 283.038,97.950 282.213,97.950 282.213,94.720 280.488,94.720 280.488,93.800 277.188,93.800 277.188,94.720 275.463,94.720 275.463,97.950 273.938,97.950 273.938,93.250" style="fill:none;stroke-width:0.050000mm;stroke:black"/>
<polygon points="14.669,93.250 14.669,107.250 28.669,107.250 28.669,93.250" style="fill:none;stroke-width:0.050000mm;stroke:black"/>
<polygon points="40.863,93.250 40.863,107.250 54.863,107.250 54.863,93.250" style="fill:none;stroke-width:0.050000mm;stroke:black"/>
<polygon points="59.913,93.250 59.913,107.250 73.913,107.250 73.913,93.250" style="fill:none;stroke-width:0.050000mm;stroke:black"/>
<polygon points="78.963,93.250 78.963,107.250 92.963,107.250 92.963,93.250" style="fill:none;stroke-width:0.050000mm;stroke:black"/>
<polygon points="98.013,93.250 98.013,107.250 112.013,107.250 112.013,93.250" style="fill:none;stroke-width:0.050000mm;stroke:black"/>
<polygon points="117.063,93.250 117.063,107.250 131.063,107.250 131.063,93.250" style="fill:none;stroke-width:0.050000mm;stroke:black"/>
<polygon points="136.113,93.250 136.113,107.250 150.113,107.250 150.113,93.250" style="fill:none;stroke-width:0.050000mm;stroke:black"/>
<polygon points="155.163,93.250 155.163,107.250 169.163,107.250 169.163,93.250" style="fill:none;stroke-width:0.050000mm;stroke:black"/>
<polygon points="174.213,93.250 174.213,107.250 188.213,107.250 188.213,93.250" style="fill:none;stroke-width:0.050000mm;stroke:black"/>
<polygon points="193.263,93.250 193.263,107.250 207.263,107.250 207.263,93.250" style="fill:none;stroke-width:0.050000mm;stroke:black"/>
<polygon points="212.313,93.250 212.313,107.250 226.313,107.250 226.313,93.250" style="fill:none;stroke-width:0.050000mm;stroke:black"/>
<polygon points="231.363,93.250 231.363,107.250 245.363,107.250 245.363,93.250" style="fill:none;stroke-width:0.050000mm;stroke:black"/>
<polygon points="317.088,93.250 317.088,107.250 331.088,107.250 331.088,93.250" style="fill:none;stroke-width:0.050000mm;stroke:black"/>
<polygon points="336.138,93.250 336.138,107.250 350.138,107.250 350.138,93.250" style="fill:none;stroke-width:0.050000mm;stroke:black"/>
<polygon points="355.188,93.250 355.188,107.250 369.188,107.250 369.188,93.250" style="fill:none;stroke-width:0.050000mm;stroke:black"/>
<polygon points="398.051,93.250 398.051,107.250 412.051,107.250 412.051,93.250" style="fill:none;stroke-width:0.050000mm;stroke:black"/>
<polygon points="17.051,74.200 17.051,78.900 15.526,78.900 15.526,75.670 13.801,75.670 13.801,74.750 10.501,74.750 10.501,75.670 8.776,75.670 8.776,78.900 7.950,78.900 7.950,81.700 8.776,81.700 8.776,87.970 10.501,87.970 10.501,88.950 13.801,88.950 13.801,87.970 15.526,87.970 15.526,83.500 17.051,83.500 17.051,88.200 31.051,88.200 31.051,83.500 32.576,83.500 32.576,87.970 34.301,87.970 34.301,88.950 37.601,88.950 37.601,87.970 39.326,87.970 39.326,81.700 40.151,81.700 40.151,78.900 39.326,78.900 39.326,75.670 37.601,75.670 37.601,74.750 34.301,74.750 34.301,75.670 32.576,75.670 32.576,78.900 31.051,78.900 31.051,74.200" style="fill:none;stroke-width:0.050000mm;stroke:black"/>
<polygon points="45.626,74.200 45.626,88.200 59.626,88.200 59.626,74.200" style="fill:none;stroke-width:0.050000mm;stroke:black"/>
<polygon points="64.676,74.200 64.676,88.200 78.676,88.200 78.676,74.200" style="fill:none;stroke-width:0.050000mm;stroke:black"/>
<polygon points="83.726,74.200 83.726,88.200 97.726,88.200 97.726,74.200" style="fill:none;stroke-width:0.050000mm;stroke:black"/>
<polygon points="102.775,74.200 102.775,88.200 116.775,88.200 116.775,74.200" style="fill:none;stroke-width:0.050000mm;stroke:black"/>
<polygon points="121.825,74.200 121.825,88.200 135.826,88.200 135.826,74.200" style="fill:none;stroke-width:0.050000mm;stroke:black"/>
<polygon points="140.876,74.200 140.876,88.200 154.876,88.200 154.876,74.200" style="fill:none;stroke-width:0.050000mm;stroke:black"/>
<polygon points="159.926,74.200 159.926,88.200 173.926,88.200 173.926,74.200" style="fill:none;stroke-width:0.050000mm;stroke:black"/>
<polygon points="178.976,74.200 178.976,88.200 192.976,88.200 192.976,74.200" style="fill:none;stroke-width:0.050000mm;stroke:black"/>
<polygon points="198.026,74.200 198.026,88.200 212.026,88.200 212.026,74.200" style="fill:none;stroke-width:0.050000mm;stroke:black"/>
<polygon points="217.076,74.200 217.076,88.200 231.076,88.200 231.076,74.200" style="fill:none;stroke-width:0.050000mm;stroke:black"/>
<polygon points="236.126,74.200 236.126,88.200 250.126,88.200 250.126,74.200" style="fill:none;stroke-width:0.050000mm;stroke:black"/>
<polygon points="255.176,74.200 255.176,88.200 269.176,88.200 269.176,74.200" style="fill:none;stroke-width:0.050000mm;stroke:black"/>
<polygon points="317.088,74.200 317.088,88.200 331.088,88.200 331.088,74.200" style="fill:none;stroke-width:0.050000mm;stroke:black"/>
<polygon points="336.138,74.200 336.138,88.200 350.138,88.200 350.138,74.200" style="fill:none;stroke-width:0.050000mm;stroke:black"/>
<polygon points="355.188,74.200 355.188,88.200 369.188,88.200 369.188,74.200" style="fill:none;stroke-width:0.050000mm;stroke:black"/>
<polygon points="398.051,74.200 398.051,88.200 412.051,88.200 412.051,74.200" style="fill:none;stroke-width:0.050000mm;stroke:black"/>
<polygon points="283.107,55.575 283.107,56.400 276.837,56.400 276.837,58.125 275.857,58.125 275.857,61.425 276.837,61.425 276.837,63.150 281.307,63.150 281.307,64.675 276.607,64.675 276.607,78.675 281.307,78.675 281.307,80.200 276.837,80.200 276.837,81.925 275.857,81.925 275.857,85.225 276.837,85.225 276.837,86.950 283.107,86.950 283.107,87.775 285.907,87.775 285.907,86.950 289.137,86.950 289.137,85.225 290.057,85.225 290.057,81.925 289.137,81.925 289.137,80.200 285.907,80.200 285.907,78.675 290.607,78.675 290.607,64.675 285.907,64.675 285.907,63.150 289.137,63.150 289.137,61.425 290.057,61.425 290.057,58.125 289.137,58.125 289.137,56.400 285.907,56.400 285.907,55.575" style="fill:none;stroke-width:0.050000mm;stroke:black"/>
<polygon points="380.738,55.575 380.738,56.400 374.468,56.400 374.468,58.125 373.488,58.125 373.488,61.425 374.468,61.425 374.468,63.150 378.938,63.150 378.938,64.675 374.238,64.675 374.238,78.675 378.938,78.675 378.938,80.200 374.468,80.200 374.468,81.925 373.488,81.925 373.488,85.225 374.468,85.225 374.468,86.950 380.738,86.950 380.738,87.775 383.538,87.775 383.538,86.950 386.768,86.950 386.768,85.225 387.688,85.225 387.688,81.925 386.768,81.925 386.768,80.200 383.538,80.200 383.538,78.675 388.238,78.675 388.238,64.675 383.538,64.675 383.538,63.150 386.768,63.150 386.768,61.425 387.688,61.425 387.688,58.125 386.768,58.125 386.768,56.400 383.538,56.400 383.538,55.575" style="fill:none;stroke-width:0.050000mm;stroke:black"/>
<polygon points="14.669,55.150 14.669,69.150 28.669,69.150 28.669,55.150" style="fill:none;stroke-width:0.050000mm;stroke:black"/>
<polygon points="40.863,55.150 40.863,69.150 54.863,69.150 54.863,55.150" style="fill:none;stroke-width:0.050000mm;stroke:black"/>
<polygon points="59.913,55.150 59.913,69.150 73.913,69.150 73.913,55.150" style="fill:none;stroke-width:0.050000mm;stroke:black"/>
<polygon points="78.963,55.150 78.963,69.150 92.963,69.150 92.963,55.150" style="fill:none;stroke-width:0.050000mm;stroke:black"/>
<polygon points="98.013,55.150 98.013,69.150 112.013,69.150 112.013,55.150" style="fill:none;stroke-width:0.050000mm;stroke:black"/>
<polygon points="117.063,55.150 117.063,69.150 131.063,69.150 131.063,55.150" style="fill:none;stroke-width:0.050000mm;stroke:black"/>
<polygon points="136.113,55.150 136.113,69.150 150.113,69.150 150.113,55.150" style="fill:none;stroke-width:0.050000mm;stroke:black"/>
<polygon points="155.163,55.150 155.163,69.150 169.163,69.150 169.163,55.150" style="fill:none;stroke-width:0.050000mm;stroke:black"/>
<polygon points="174.213,55.150 174.213,69.150 188.213,69.150 188.213,55.150" style="fill:none;stroke-width:0.050000mm;stroke:black"/>
<polygon points="193.263,55.150 193.263,69.150 207.263,69.150 207.263,55.150" style="fill:none;stroke-width:0.050000mm;stroke:black"/>
<polygon points="212.313,55.150 212.313,69.150 226.313,69.150 226.313,55.150" style="fill:none;stroke-width:0.050000mm;stroke:black"/>
<polygon points="231.363,55.150 231.363,69.150 245.363,69.150 245.363,55.150" style="fill:none;stroke-width:0.050000mm;stroke:black"/>
<polygon points="250.413,55.150 250.413,69.150 264.413,69.150 264.413,55.150" style="fill:none;stroke-width:0.050000mm;stroke:black"/>
<polygon points="317.088,55.150 317.088,69.150 331.088,69.150 331.088,55.150" style="fill:none;stroke-width:0.050000mm;stroke:black"/>
<polygon points="336.138,55.150 336.138,69.150 350.138,69.150 350.138,55.150" style="fill:none;stroke-width:0.050000mm;stroke:black"/>
<polygon points="355.188,55.150 355.188,69.150 369.188,69.150 369.188,55.150" style="fill:none;stroke-width:0.050000mm;stroke:black"/>
<polygon points="398.051,55.150 398.051,69.150 412.051,69.150 412.051,55.150" style="fill:none;stroke-width:0.050000mm;stroke:black"/>
<polygon points="267.082,36.100 267.082,40.800 265.557,40.800 265.557,37.570 263.832,37.570 263.832,36.650 260.532,36.650 260.532,37.570 258.806,37.570 258.806,40.800 257.982,40.800 257.982,43.600 258.806,43.600 258.806,49.870 260.532,49.870 260.532,50.850 263.832,50.850 263.832,49.870 265.557,49.870 265.557,45.400 267.082,45.400 267.082,50.100 281.082,50.100 281.082,45.400 282.607,45.400 282.607,49.870 284.332,49.870 284.332,50.850 287.632,50.850 287.632,49.870 289.357,49.870 289.357,43.600 290.182,43.600 290.182,40.800 289.357,40.800 289.357,37.570 287.632,37.570 287.632,36.650 284.332,36.650 284.332,37.570 282.607,37.570 282.607,40.800 281.082,40.800 281.082,36.100" style="fill:none;stroke-width:0.050000mm;stroke:black"/>
<polygon points="7.526,36.100 7.526,50.100 21.526,50.100 21.526,36.100" style="fill:none;stroke-width:0.050000mm;stroke:black"/>
<polygon points="26.576,36.100 26.576,50.100 40.576,50.100 40.576,36.100" style="fill:none;stroke-width:0.050000mm;stroke:black"/>
<polygon points="45.626,36.100 45.626,50.100 59.626,50.100 59.626,36.100" style="fill:none;stroke-width:0.050000mm;stroke:black"/>
<polygon points="64.676,36.100 64.676,50.100 78.676,50.100 78.676,36.100" style="fill:none;stroke-width:0.050000mm;stroke:black"/>
<polygon points="83.726,36.100 83.726,50.100 97.726,50.100 97.726,36.100" style="fill:none;stroke-width:0.050000mm;stroke:black"/>
<polygon points="102.775,36.100 102.775,50.100 116.775,50.100 116.775,36.100" style="fill:none;stroke-width:0.050000mm;stroke:black"/>
<polygon points="121.825,36.100 121.825,50.100 135.826,50.100 135.826,36.100" style="fill:none;stroke-width:0.050000mm;stroke:black"/>
<polygon points="140.876,36.100 140.876,50.100 154.876,50.100 154.876,36.100" style="fill:none;stroke-width:0.050000mm;stroke:black"/>
<polygon points="159.926,36.100 159.926,50.100 173.926,50.100 173.926,36.100" style="fill:none;stroke-width:0.050000mm;stroke:black"/>
<polygon points="178.976,36.100 178.976,50.100 192.976,50.100 192.976,36.100" style="fill:none;stroke-width:0.050000mm;stroke:black"/>
<polygon points="198.026,36.100 198.026,50.100 212.026,50.100 212.026,36.100" style="fill:none;stroke-width:0.050000mm;stroke:black"/>
<polygon points="217.076,36.100 217.076,50.100 231.076,50.100 231.076,36.100" style="fill:none;stroke-width:0.050000mm;stroke:black"/>
<polygon points="236.126,36.100 236.126,50.100 250.126,50.100 250.126,36.100" style="fill:none;stroke-width:0.050000mm;stroke:black"/>
<polygon points="317.088,36.100 317.088,50.100 331.088,50.100 331.088,36.100" style="fill:none;stroke-width:0.050000mm;stroke:black"/>
<polygon points="336.138,36.100 336.138,50.100 350.138,50.100 350.138,36.100" style="fill:none;stroke-width:0.050000mm;stroke:black"/>
<polygon points="355.188,36.100 355.188,50.100 369.188,50.100 369.188,36.100" style="fill:none;stroke-width:0.050000mm;stroke:black"/>
<polygon points="374.238,36.100 374.238,50.100 388.238,50.100 388.238,36.100" style="fill:none;stroke-width:0.050000mm;stroke:black"/>
<polygon points="398.051,36.100 398.051,50.100 412.051,50.100 412.051,36.100" style="fill:none;stroke-width:0.050000mm;stroke:black"/>
<polygon points="345.663,12.287 345.663,16.987 327.463,16.987 327.463,13.757 325.738,13.757 325.738,12.837 322.438,12.837 322.438,13.757 320.713,13.757 320.713,16.987 319.888,16.987 319.888,19.787 320.713,19.787 320.713,26.057 322.438,26.057 322.438,27.037 325.738,27.037 325.738,26.057 327.463,26.057 327.463,21.587 345.663,21.587 345.663,26.287 359.663,26.287 359.663,21.587 377.863,21.587 377.863,26.057 379.588,26.057 379.588,27.037 382.888,27.037 382.888,26.057 384.613,26.057 384.613,19.787 385.438,19.787 385.438,16.987 384.613,16.987 384.613,13.757 382.888,13.757 382.888,12.837 379.588,12.837 379.588,13.757 377.863,13.757 377.863,16.987 359.663,16.987 359.663,12.287" style="fill:none;stroke-width:0.050000mm;stroke:black"/>
<polygon points="9.907,12.287 9.907,26.287 23.907,26.287 23.907,12.287" style="fill:none;stroke-width:0.050000mm;stroke:black"/>
<polygon points="31.338,12.287 31.338,26.287 45.338,26.287 45.338,12.287" style="fill:none;stroke-width:0.050000mm;stroke:black"/>
<polygon points="50.388,12.287 50.388,26.287 64.388,26.287 64.388,12.287" style="fill:none;stroke-width:0.050000mm;stroke:black"/>
<polygon points="69.438,12.287 69.438,26.287 83.438,26.287 83.438,12.287" style="fill:none;stroke-width:0.050000mm;stroke:black"/>
<polygon points="88.488,12.287 88.488,26.287 102.488,26.287 102.488,12.287" style="fill:none;stroke-width:0.050000mm;stroke:black"/>
<polygon points="107.538,12.287 107.538,26.287 121.538,26.287 121.538,12.287" style="fill:none;stroke-width:0.050000mm;stroke:black"/>
<polygon points="126.588,12.287 126.588,26.287 140.588,26.287 140.588,12.287" style="fill:none;stroke-width:0.050000mm;stroke:black"/>
<polygon points="145.638,12.287 145.638,26.287 159.638,26.287 159.638,12.287" style="fill:none;stroke-width:0.050000mm;stroke:black"/>
<polygon points="164.688,12.287 164.688,26.287 178.688,26.287 178.688,12.287" style="fill:none;stroke-width:0.050000mm;stroke:black"/>
<polygon points="183.738,12.287 183.738,26.287 197.738,26.287 197.738,12.287" style="fill:none;stroke-width:0.050000mm;stroke:black"/>
<polygon points="202.788,12.287 202.788,26.287 216.788,26.287 216.788,12.287" style="fill:none;stroke-width:0.050000mm;stroke:black"/>
<polygon points="221.838,12.287 221.838,26.287 235.838,26.287 235.838,12.287" style="fill:none;stroke-width:0.050000mm;stroke:black"/>
<polygon points="240.888,12.287 240.888,26.287 254.888,26.287 254.888,12.287" style="fill:none;stroke-width:0.050000mm;stroke:black"/>
<polygon points="259.938,12.287 259.938,26.287 273.938,26.287 273.938,12.287" style="fill:none;stroke-width:0.050000mm;stroke:black"/>
<polygon points="278.988,12.287 278.988,26.287 292.988,26.287 292.988,12.287" style="fill:none;stroke-width:0.050000mm;stroke:black"/>
<polygon points="398.051,12.287 398.051,26.287 412.051,26.287 412.051,12.287" style="fill:none;stroke-width:0.050000mm;stroke:black"/>
</svg>
