  0
SECTION
  2
HEADER
  9
$ANGBASE
  50
0.0
  9
$ANGDIR
  70
1
  9
$MEASUREMENT
  70
1
  0
ENDSEC
  0
SECTION
  2
TABLES
  0
TABLE
  2
LTYPE
  70
4
  0
LTYPE
  5
40F
  2
CONTINUOUS
  70
0
  3
Solid line
  72
65
  73
0
  40
0.0
  0
LTYPE
  5
410
  2
DASHDOT
 70
0
  3
Dash Dot ____ _ ____ _
 72
65
 73
4
 40
2.0
 49
1.25
 49
-0.25
 49
0.25
 49
-0.25
  0
LTYPE
  5
411
  2
DASHED
 70
0
  3
Dashed __ __ __ __ __
 72
65
 73
2
 40
0.75
 49
0.5
 49
-0.25
  0
LTYPE
  5
43B
  2
DOTTED
 70
0
  3
Dotted .  .  .  .
 72
65
 73
2
 40
0.2
 49
0.0
 49
-0.2
  0
ENDTAB
  0
TABLE
  2
STYLE
  70
4
  0
STYLE
  2
KICAD
  70
0
  40
0
  41
1
  42
1
  50
0
  71
0
  3
isocp.shx
  0
STYLE
  2
KICADB
  70
0
  40
0
  41
1
  42
1
  50
0
  71
0
  3
isocp.shx
  0
STYLE
  2
KICADI
  70
0
  40
0
  41
1
  42
1
  50
15
  71
0
  3
isocp.shx
  0
STYLE
  2
KICADBI
  70
0
  40
0
  41
1
  42
1
  50
15
  71
0
  3
isocp.shx
  0
ENDTAB
  0
TABLE
  2
LAYER
  70
1
  0
LAYER
  2
BLACK
  70
0
  62
7
  6
CONTINUOUS
  0
ENDTAB
  0
ENDSEC
  0
SECTION
  2
ENTITIES
0
LINE
8
BLACK
6
CONTINUOUS
10
62.6265000000000001
20
-26.7593999999999994
11
203.1564999999999941
21
-26.7593999999999994
0
LINE
8
BLACK
6
CONTINUOUS
10
59.197499999999998
20
-122.0093999999999994
11
59.197499999999998
21
-26.7593999999999994
0
LINE
8
BLACK
6
CONTINUOUS
10
59.197499999999998
20
-26.7593999999999994
11
62.6265000000000001
21
-26.7593999999999994
0
LINE
8
BLACK
6
CONTINUOUS
10
137.1754999999999995
20
-122.0093999999999994
11
137.1754999999999995
21
-103.7213999999999885
0
LINE
8
BLACK
6
CONTINUOUS
10
203.1564999999999941
20
-103.7213999999999885
11
203.1564999999999941
21
-26.7593999999999994
0
LINE
8
BLACK
6
CONTINUOUS
10
137.1754999999999995
20
-122.0093999999999994
11
59.197499999999998
21
-122.0093999999999994
0
LINE
8
BLACK
6
CONTINUOUS
10
137.1754999999999995
20
-103.7213999999999885
11
203.1564999999999941
21
-103.7213999999999885
0
LINE
8
BLACK
6
CONTINUOUS
10
188.8089999999999975
20
-77.8233999999999924
11
188.8089999999999975
21
-80.8233999999999924
0
LINE
8
BLACK
6
CONTINUOUS
10
188.8089999999999975
20
-80.8233999999999924
11
192.2090000000000032
21
-80.8233999999999924
0
LINE
8
BLACK
6
CONTINUOUS
10
192.2090000000000032
20
-77.8233999999999924
11
188.8089999999999975
21
-77.8233999999999924
0
LINE
8
BLACK
6
CONTINUOUS
10
192.2090000000000032
20
-80.8233999999999924
11
192.2090000000000032
21
-77.8233999999999924
0
LINE
8
BLACK
6
CONTINUOUS
10
169.7589999999999861
20
-96.8733999999999895
11
169.7589999999999861
21
-99.8733999999999895
0
LINE
8
BLACK
6
CONTINUOUS
10
169.7589999999999861
20
-99.8733999999999895
11
173.1589999999999918
21
-99.8733999999999895
0
LINE
8
BLACK
6
CONTINUOUS
10
173.1589999999999918
20
-96.8733999999999895
11
169.7589999999999861
21
-96.8733999999999895
0
LINE
8
BLACK
6
CONTINUOUS
10
173.1589999999999918
20
-99.8733999999999895
11
173.1589999999999918
21
-96.8733999999999895
0
LINE
8
BLACK
6
CONTINUOUS
10
145.9464999999999861
20
-58.7733999999999952
11
145.9464999999999861
21
-61.7733999999999952
0
LINE
8
BLACK
6
CONTINUOUS
10
145.9464999999999861
20
-61.7733999999999952
11
149.3464999999999918
21
-61.7733999999999952
0
LINE
8
BLACK
6
CONTINUOUS
10
149.3464999999999918
20
-58.7733999999999952
11
145.9464999999999861
21
-58.7733999999999952
0
LINE
8
BLACK
6
CONTINUOUS
10
149.3464999999999918
20
-61.7733999999999952
11
149.3464999999999918
21
-58.7733999999999952
0
LINE
8
BLACK
6
CONTINUOUS
10
145.9464999999999861
20
-39.723399999999998
11
145.9464999999999861
21
-42.723399999999998
0
LINE
8
BLACK
6
CONTINUOUS
10
145.9464999999999861
20
-42.723399999999998
11
149.3464999999999918
21
-42.723399999999998
0
LINE
8
BLACK
6
CONTINUOUS
10
149.3464999999999918
20
-39.723399999999998
11
145.9464999999999861
21
-39.723399999999998
0
LINE
8
BLACK
6
CONTINUOUS
10
149.3464999999999918
20
-42.723399999999998
11
149.3464999999999918
21
-39.723399999999998
0
LINE
8
BLACK
6
CONTINUOUS
10
169.7589999999999861
20
-77.8233999999999924
11
169.7589999999999861
21
-80.8233999999999924
0
LINE
8
BLACK
6
CONTINUOUS
10
169.7589999999999861
20
-80.8233999999999924
11
173.1589999999999918
21
-80.8233999999999924
0
LINE
8
BLACK
6
CONTINUOUS
10
173.1589999999999918
20
-77.8233999999999924
11
169.7589999999999861
21
-77.8233999999999924
0
LINE
8
BLACK
6
CONTINUOUS
10
173.1589999999999918
20
-80.8233999999999924
11
173.1589999999999918
21
-77.8233999999999924
0
LINE
8
BLACK
6
CONTINUOUS
10
107.8464999999999918
20
-58.7733999999999952
11
107.8464999999999918
21
-61.7733999999999952
0
LINE
8
BLACK
6
CONTINUOUS
10
107.8464999999999918
20
-61.7733999999999952
11
111.2464999999999975
21
-61.7733999999999952
0
LINE
8
BLACK
6
CONTINUOUS
10
111.2464999999999975
20
-58.7733999999999952
11
107.8464999999999918
21
-58.7733999999999952
0
LINE
8
BLACK
6
CONTINUOUS
10
111.2464999999999975
20
-61.7733999999999952
11
111.2464999999999975
21
-58.7733999999999952
0
LINE
8
BLACK
6
CONTINUOUS
10
107.8464999999999918
20
-39.723399999999998
11
107.8464999999999918
21
-42.723399999999998
0
LINE
8
BLACK
6
CONTINUOUS
10
107.8464999999999918
20
-42.723399999999998
11
111.2464999999999975
21
-42.723399999999998
0
LINE
8
BLACK
6
CONTINUOUS
10
111.2464999999999975
20
-39.723399999999998
11
107.8464999999999918
21
-39.723399999999998
0
LINE
8
BLACK
6
CONTINUOUS
10
111.2464999999999975
20
-42.723399999999998
11
111.2464999999999975
21
-39.723399999999998
0
LINE
8
BLACK
6
CONTINUOUS
10
88.7964999999999947
20
-39.723399999999998
11
88.7964999999999947
21
-42.723399999999998
0
LINE
8
BLACK
6
CONTINUOUS
10
88.7964999999999947
20
-42.723399999999998
11
92.1965000000000003
21
-42.723399999999998
0
LINE
8
BLACK
6
CONTINUOUS
10
92.1965000000000003
20
-39.723399999999998
11
88.7964999999999947
21
-39.723399999999998
0
LINE
8
BLACK
6
CONTINUOUS
10
92.1965000000000003
20
-42.723399999999998
11
92.1965000000000003
21
-39.723399999999998
0
LINE
8
BLACK
6
CONTINUOUS
10
164.9964999999999975
20
-58.7733999999999952
11
164.9964999999999975
21
-61.7733999999999952
0
LINE
8
BLACK
6
CONTINUOUS
10
164.9964999999999975
20
-61.7733999999999952
11
168.3965000000000032
21
-61.7733999999999952
0
LINE
8
BLACK
6
CONTINUOUS
10
168.3965000000000032
20
-58.7733999999999952
11
164.9964999999999975
21
-58.7733999999999952
0
LINE
8
BLACK
6
CONTINUOUS
10
168.3965000000000032
20
-61.7733999999999952
11
168.3965000000000032
21
-58.7733999999999952
0
LINE
8
BLACK
6
CONTINUOUS
10
150.7090000000000032
20
-77.8233999999999924
11
150.7090000000000032
21
-80.8233999999999924
0
LINE
8
BLACK
6
CONTINUOUS
10
150.7090000000000032
20
-80.8233999999999924
11
154.1089999999999804
21
-80.8233999999999924
0
LINE
8
BLACK
6
CONTINUOUS
10
154.1089999999999804
20
-77.8233999999999924
11
150.7090000000000032
21
-77.8233999999999924
0
LINE
8
BLACK
6
CONTINUOUS
10
154.1089999999999804
20
-80.8233999999999924
11
154.1089999999999804
21
-77.8233999999999924
0
LINE
8
BLACK
6
CONTINUOUS
10
126.896499999999989
20
-58.7733999999999952
11
126.896499999999989
21
-61.7733999999999952
0
LINE
8
BLACK
6
CONTINUOUS
10
126.896499999999989
20
-61.7733999999999952
11
130.2964999999999804
21
-61.7733999999999952
0
LINE
8
BLACK
6
CONTINUOUS
10
130.2964999999999804
20
-58.7733999999999952
11
126.896499999999989
21
-58.7733999999999952
0
LINE
8
BLACK
6
CONTINUOUS
10
130.2964999999999804
20
-61.7733999999999952
11
130.2964999999999804
21
-58.7733999999999952
0
LINE
8
BLACK
6
CONTINUOUS
10
93.5589999999999975
20
-77.8233999999999924
11
93.5589999999999975
21
-80.8233999999999924
0
LINE
8
BLACK
6
CONTINUOUS
10
93.5589999999999975
20
-80.8233999999999924
11
96.958999999999989
21
-80.8233999999999924
0
LINE
8
BLACK
6
CONTINUOUS
10
96.958999999999989
20
-77.8233999999999924
11
93.5589999999999975
21
-77.8233999999999924
0
LINE
8
BLACK
6
CONTINUOUS
10
96.958999999999989
20
-80.8233999999999924
11
96.958999999999989
21
-77.8233999999999924
0
LINE
8
BLACK
6
CONTINUOUS
10
88.7964999999999947
20
-58.7733999999999952
11
88.7964999999999947
21
-61.7733999999999952
0
LINE
8
BLACK
6
CONTINUOUS
10
88.7964999999999947
20
-61.7733999999999952
11
92.1965000000000003
21
-61.7733999999999952
0
LINE
8
BLACK
6
CONTINUOUS
10
92.1965000000000003
20
-58.7733999999999952
11
88.7964999999999947
21
-58.7733999999999952
0
LINE
8
BLACK
6
CONTINUOUS
10
92.1965000000000003
20
-61.7733999999999952
11
92.1965000000000003
21
-58.7733999999999952
0
LINE
8
BLACK
6
CONTINUOUS
10
114.990249999999989
20
-115.9234000000000009
11
114.990249999999989
21
-118.9234000000000009
0
LINE
8
BLACK
6
CONTINUOUS
10
114.990249999999989
20
-118.9234000000000009
11
118.3902499999999947
21
-118.9234000000000009
0
LINE
8
BLACK
6
CONTINUOUS
10
118.3902499999999947
20
-115.9234000000000009
11
114.990249999999989
21
-115.9234000000000009
0
LINE
8
BLACK
6
CONTINUOUS
10
118.3902499999999947
20
-118.9234000000000009
11
118.3902499999999947
21
-115.9234000000000009
0
LINE
8
BLACK
6
CONTINUOUS
10
150.7090000000000032
20
-96.8733999999999895
11
150.7090000000000032
21
-99.8733999999999895
0
LINE
8
BLACK
6
CONTINUOUS
10
150.7090000000000032
20
-99.8733999999999895
11
154.1089999999999804
21
-99.8733999999999895
0
LINE
8
BLACK
6
CONTINUOUS
10
154.1089999999999804
20
-96.8733999999999895
11
150.7090000000000032
21
-96.8733999999999895
0
LINE
8
BLACK
6
CONTINUOUS
10
154.1089999999999804
20
-99.8733999999999895
11
154.1089999999999804
21
-96.8733999999999895
0
LINE
8
BLACK
6
CONTINUOUS
10
103.083999999999989
20
-96.8733999999999895
11
103.083999999999989
21
-99.8733999999999895
0
LINE
8
BLACK
6
CONTINUOUS
10
103.083999999999989
20
-99.8733999999999895
11
106.4839999999999947
21
-99.8733999999999895
0
LINE
8
BLACK
6
CONTINUOUS
10
106.4839999999999947
20
-96.8733999999999895
11
103.083999999999989
21
-96.8733999999999895
0
LINE
8
BLACK
6
CONTINUOUS
10
106.4839999999999947
20
-99.8733999999999895
11
106.4839999999999947
21
-96.8733999999999895
0
LINE
8
BLACK
6
CONTINUOUS
10
186.4277500000000032
20
-58.7733999999999952
11
186.4277500000000032
21
-61.7733999999999952
0
LINE
8
BLACK
6
CONTINUOUS
10
186.4277500000000032
20
-61.7733999999999952
11
189.8277499999999804
21
-61.7733999999999952
0
LINE
8
BLACK
6
CONTINUOUS
10
189.8277499999999804
20
-58.7733999999999952
11
186.4277500000000032
21
-58.7733999999999952
0
LINE
8
BLACK
6
CONTINUOUS
10
189.8277499999999804
20
-61.7733999999999952
11
189.8277499999999804
21
-58.7733999999999952
0
LINE
8
BLACK
6
CONTINUOUS
10
164.9964999999999975
20
-39.723399999999998
11
164.9964999999999975
21
-42.723399999999998
0
LINE
8
BLACK
6
CONTINUOUS
10
164.9964999999999975
20
-42.723399999999998
11
168.3965000000000032
21
-42.723399999999998
0
LINE
8
BLACK
6
CONTINUOUS
10
168.3965000000000032
20
-39.723399999999998
11
164.9964999999999975
21
-39.723399999999998
0
LINE
8
BLACK
6
CONTINUOUS
10
168.3965000000000032
20
-42.723399999999998
11
168.3965000000000032
21
-39.723399999999998
0
LINE
8
BLACK
6
CONTINUOUS
10
112.6089999999999947
20
-77.8233999999999924
11
112.6089999999999947
21
-80.8233999999999924
0
LINE
8
BLACK
6
CONTINUOUS
10
112.6089999999999947
20
-80.8233999999999924
11
116.0090000000000003
21
-80.8233999999999924
0
LINE
8
BLACK
6
CONTINUOUS
10
116.0090000000000003
20
-77.8233999999999924
11
112.6089999999999947
21
-77.8233999999999924
0
LINE
8
BLACK
6
CONTINUOUS
10
116.0090000000000003
20
-80.8233999999999924
11
116.0090000000000003
21
-77.8233999999999924
0
LINE
8
BLACK
6
CONTINUOUS
10
131.6589999999999918
20
-96.8733999999999895
11
131.6589999999999918
21
-99.8733999999999895
0
LINE
8
BLACK
6
CONTINUOUS
10
131.6589999999999918
20
-99.8733999999999895
11
135.0589999999999975
21
-99.8733999999999895
0
LINE
8
BLACK
6
CONTINUOUS
10
135.0589999999999975
20
-96.8733999999999895
11
131.6589999999999918
21
-96.8733999999999895
0
LINE
8
BLACK
6
CONTINUOUS
10
135.0589999999999975
20
-99.8733999999999895
11
135.0589999999999975
21
-96.8733999999999895
0
LINE
8
BLACK
6
CONTINUOUS
10
126.896499999999989
20
-39.723399999999998
11
126.896499999999989
21
-42.723399999999998
0
LINE
8
BLACK
6
CONTINUOUS
10
126.896499999999989
20
-42.723399999999998
11
130.2964999999999804
21
-42.723399999999998
0
LINE
8
BLACK
6
CONTINUOUS
10
130.2964999999999804
20
-39.723399999999998
11
126.896499999999989
21
-39.723399999999998
0
LINE
8
BLACK
6
CONTINUOUS
10
130.2964999999999804
20
-42.723399999999998
11
130.2964999999999804
21
-39.723399999999998
0
LINE
8
BLACK
6
CONTINUOUS
10
186.4277500000000032
20
-39.723399999999998
11
186.4277500000000032
21
-42.723399999999998
0
LINE
8
BLACK
6
CONTINUOUS
10
186.4277500000000032
20
-42.723399999999998
11
189.8277499999999804
21
-42.723399999999998
0
LINE
8
BLACK
6
CONTINUOUS
10
189.8277499999999804
20
-39.723399999999998
11
186.4277500000000032
21
-39.723399999999998
0
LINE
8
BLACK
6
CONTINUOUS
10
189.8277499999999804
20
-42.723399999999998
11
189.8277499999999804
21
-39.723399999999998
0
LINE
8
BLACK
6
CONTINUOUS
10
131.6589999999999918
20
-77.8233999999999924
11
131.6589999999999918
21
-80.8233999999999924
0
LINE
8
BLACK
6
CONTINUOUS
10
131.6589999999999918
20
-80.8233999999999924
11
135.0589999999999975
21
-80.8233999999999924
0
LINE
8
BLACK
6
CONTINUOUS
10
135.0589999999999975
20
-77.8233999999999924
11
131.6589999999999918
21
-77.8233999999999924
0
LINE
8
BLACK
6
CONTINUOUS
10
135.0589999999999975
20
-80.8233999999999924
11
135.0589999999999975
21
-77.8233999999999924
0
LINE
8
BLACK
6
CONTINUOUS
10
188.8089999999999975
20
-96.8733999999999895
11
188.8089999999999975
21
-99.8733999999999895
0
LINE
8
BLACK
6
CONTINUOUS
10
188.8089999999999975
20
-99.8733999999999895
11
192.2090000000000032
21
-99.8733999999999895
0
LINE
8
BLACK
6
CONTINUOUS
10
192.2090000000000032
20
-96.8733999999999895
11
188.8089999999999975
21
-96.8733999999999895
0
LINE
8
BLACK
6
CONTINUOUS
10
192.2090000000000032
20
-99.8733999999999895
11
192.2090000000000032
21
-96.8733999999999895
0
CIRCLE
8
BLACK
10
134.0004999999999882
20
-108.4204000000000008
40
0.175
0
CIRCLE
8
BLACK
10
123.0964999999999918
20
-55.5733999999999995
40
0.175
0
CIRCLE
8
BLACK
10
123.5964999999999918
20
-60.723399999999998
40
0.175
0
CIRCLE
8
BLACK
10
128.5964999999999918
20
-55.5733999999999995
40
0.175
0
CIRCLE
8
BLACK
10
134.0964999999999918
20
-55.5733999999999995
40
0.175
0
CIRCLE
8
BLACK
10
128.5964999999999918
20
-49.6734000000000009
40
0.175
0
CIRCLE
8
BLACK
10
133.5964999999999918
20
-51.7733999999999952
40
0.175
0
CIRCLE
8
BLACK
10
177.7065000000000055
20
-62.973399999999998
40
0.175
0
CIRCLE
8
BLACK
10
85.9564999999999912
20
-120.0233999999999952
40
0.175
0
CIRCLE
8
BLACK
10
88.4964999999999975
20
-120.0233999999999952
40
0.175
0
CIRCLE
8
BLACK
10
91.0364999999999895
20
-120.0233999999999952
40
0.175
0
CIRCLE
8
BLACK
10
93.5764999999999958
20
-120.0233999999999952
40
0.175
0
CIRCLE
8
BLACK
10
122.7564999999999884
20
-86.3833999999999946
40
0.175
0
CIRCLE
8
BLACK
10
108.8089999999999975
20
-74.6233999999999895
40
0.175
0
CIRCLE
8
BLACK
10
109.3089999999999975
20
-79.7733999999999952
40
0.175
0
CIRCLE
8
BLACK
10
114.3089999999999975
20
-74.6233999999999895
40
0.175
0
CIRCLE
8
BLACK
10
119.8089999999999975
20
-74.6233999999999895
40
0.175
0
CIRCLE
8
BLACK
10
114.3089999999999975
20
-68.723399999999998
40
0.175
0
CIRCLE
8
BLACK
10
119.3089999999999975
20
-70.8233999999999924
40
0.175
0
CIRCLE
8
BLACK
10
96.5827499999999901
20
-108.7613999999999947
40
0.175
0
CIRCLE
8
BLACK
10
96.5827499999999901
20
-111.301400000000001
40
0.175
0
CIRCLE
8
BLACK
10
96.5827499999999901
20
-113.841399999999993
40
0.175
0
CIRCLE
8
BLACK
10
96.5827499999999901
20
-116.3813999999999993
40
0.175
0
CIRCLE
8
BLACK
10
99.2839999999999918
20
-93.6734000000000009
40
0.175
0
CIRCLE
8
BLACK
10
99.7839999999999918
20
-98.8233999999999924
40
0.175
0
CIRCLE
8
BLACK
10
104.7839999999999918
20
-93.6734000000000009
40
0.175
0
CIRCLE
8
BLACK
10
110.2839999999999918
20
-93.6734000000000009
40
0.175
0
CIRCLE
8
BLACK
10
104.7839999999999918
20
-87.7733999999999952
40
0.175
0
CIRCLE
8
BLACK
10
109.7839999999999918
20
-89.8733999999999895
40
0.175
0
CIRCLE
8
BLACK
10
165.9590000000000032
20
-74.6233999999999895
40
0.175
0
CIRCLE
8
BLACK
10
166.4590000000000032
20
-79.7733999999999952
40
0.175
0
CIRCLE
8
BLACK
10
171.4590000000000032
20
-74.6233999999999895
40
0.175
0
CIRCLE
8
BLACK
10
176.9590000000000032
20
-74.6233999999999895
40
0.175
0
CIRCLE
8
BLACK
10
171.4590000000000032
20
-68.723399999999998
40
0.175
0
CIRCLE
8
BLACK
10
176.4590000000000032
20
-70.8233999999999924
40
0.175
0
CIRCLE
8
BLACK
10
161.1964999999999861
20
-55.5733999999999995
40
0.175
0
CIRCLE
8
BLACK
10
161.6964999999999861
20
-60.723399999999998
40
0.175
0
CIRCLE
8
BLACK
10
166.6964999999999861
20
-55.5733999999999995
40
0.175
0
CIRCLE
8
BLACK
10
172.1964999999999861
20
-55.5733999999999995
40
0.175
0
CIRCLE
8
BLACK
10
166.6964999999999861
20
-49.6734000000000009
40
0.175
0
CIRCLE
8
BLACK
10
171.6964999999999861
20
-51.7733999999999952
40
0.175
0
CIRCLE
8
BLACK
10
84.9964999999999975
20
-55.5733999999999995
40
0.175
0
CIRCLE
8
BLACK
10
85.4964999999999975
20
-60.723399999999998
40
0.175
0
CIRCLE
8
BLACK
10
90.4964999999999975
20
-55.5733999999999995
40
0.175
0
CIRCLE
8
BLACK
10
95.9964999999999975
20
-55.5733999999999995
40
0.175
0
CIRCLE
8
BLACK
10
90.4964999999999975
20
-49.6734000000000009
40
0.175
0
CIRCLE
8
BLACK
10
95.4964999999999975
20
-51.7733999999999952
40
0.175
0
CIRCLE
8
BLACK
10
200.2364999999999782
20
-35.8933999999999997
40
0.175
0
CIRCLE
8
BLACK
10
146.9089999999999918
20
-74.6233999999999895
40
0.175
0
CIRCLE
8
BLACK
10
147.4089999999999918
20
-79.7733999999999952
40
0.175
0
CIRCLE
8
BLACK
10
152.4089999999999918
20
-74.6233999999999895
40
0.175
0
CIRCLE
8
BLACK
10
157.9089999999999918
20
-74.6233999999999895
40
0.175
0
CIRCLE
8
BLACK
10
152.4089999999999918
20
-68.723399999999998
40
0.175
0
CIRCLE
8
BLACK
10
157.4089999999999918
20
-70.8233999999999924
40
0.175
0
CIRCLE
8
BLACK
10
127.8589999999999947
20
-74.6233999999999895
40
0.175
0
CIRCLE
8
BLACK
10
128.3589999999999804
20
-79.7733999999999952
40
0.175
0
CIRCLE
8
BLACK
10
133.3589999999999804
20
-74.6233999999999895
40
0.175
0
CIRCLE
8
BLACK
10
138.8589999999999804
20
-74.6233999999999895
40
0.175
0
CIRCLE
8
BLACK
10
133.3589999999999804
20
-68.723399999999998
40
0.175
0
CIRCLE
8
BLACK
10
138.3589999999999804
20
-70.8233999999999924
40
0.175
0
CIRCLE
8
BLACK
10
142.1465000000000032
20
-55.5733999999999995
40
0.175
0
CIRCLE
8
BLACK
10
142.6465000000000032
20
-60.723399999999998
40
0.175
0
CIRCLE
8
BLACK
10
147.6465000000000032
20
-55.5733999999999995
40
0.175
0
CIRCLE
8
BLACK
10
153.1465000000000032
20
-55.5733999999999995
40
0.175
0
CIRCLE
8
BLACK
10
147.6465000000000032
20
-49.6734000000000009
40
0.175
0
CIRCLE
8
BLACK
10
152.6465000000000032
20
-51.7733999999999952
40
0.175
0
CIRCLE
8
BLACK
10
185.0089999999999861
20
-93.6734000000000009
40
0.175
0
CIRCLE
8
BLACK
10
185.5089999999999861
20
-98.8233999999999924
40
0.175
0
CIRCLE
8
BLACK
10
190.5089999999999861
20
-93.6734000000000009
40
0.175
0
CIRCLE
8
BLACK
10
196.0089999999999861
20
-93.6734000000000009
40
0.175
0
CIRCLE
8
BLACK
10
190.5089999999999861
20
-87.7733999999999952
40
0.175
0
CIRCLE
8
BLACK
10
195.5089999999999861
20
-89.8733999999999895
40
0.175
0
CIRCLE
8
BLACK
10
104.0464999999999947
20
-36.5233999999999952
40
0.175
0
CIRCLE
8
BLACK
10
104.5464999999999947
20
-41.6734000000000009
40
0.175
0
CIRCLE
8
BLACK
10
109.5464999999999947
20
-36.5233999999999952
40
0.175
0
CIRCLE
8
BLACK
10
115.0464999999999947
20
-36.5233999999999952
40
0.175
0
CIRCLE
8
BLACK
10
109.5464999999999947
20
-30.6234000000000002
40
0.175
0
CIRCLE
8
BLACK
10
114.5464999999999947
20
-32.723399999999998
40
0.175
0
CIRCLE
8
BLACK
10
146.9089999999999918
20
-93.6734000000000009
40
0.175
0
CIRCLE
8
BLACK
10
147.4089999999999918
20
-98.8233999999999924
40
0.175
0
CIRCLE
8
BLACK
10
152.4089999999999918
20
-93.6734000000000009
40
0.175
0
CIRCLE
8
BLACK
10
157.9089999999999918
20
-93.6734000000000009
40
0.175
0
CIRCLE
8
BLACK
10
152.4089999999999918
20
-87.7733999999999952
40
0.175
0
CIRCLE
8
BLACK
10
157.4089999999999918
20
-89.8733999999999895
40
0.175
0
CIRCLE
8
BLACK
10
111.1902499999999918
20
-112.723399999999998
40
0.175
0
CIRCLE
8
BLACK
10
111.6902499999999918
20
-117.8733999999999895
40
0.175
0
CIRCLE
8
BLACK
10
116.6902499999999918
20
-112.723399999999998
40
0.175
0
CIRCLE
8
BLACK
10
122.1902499999999918
20
-112.723399999999998
40
0.175
0
CIRCLE
8
BLACK
10
116.6902499999999918
20
-106.8233999999999924
40
0.175
0
CIRCLE
8
BLACK
10
121.6902499999999918
20
-108.9234000000000009
40
0.175
0
CIRCLE
8
BLACK
10
127.8590019999999896
20
-93.6734000000000009
40
0.175
0
CIRCLE
8
BLACK
10
128.3590020000000038
20
-98.8233999999999924
40
0.175
0
CIRCLE
8
BLACK
10
133.3590020000000038
20
-93.6734000000000009
40
0.175
0
CIRCLE
8
BLACK
10
138.8590020000000038
20
-93.6734000000000009
40
0.175
0
CIRCLE
8
BLACK
10
133.3590020000000038
20
-87.7733999999999952
40
0.175
0
CIRCLE
8
BLACK
10
138.3590020000000038
20
-89.8733999999999895
40
0.175
0
CIRCLE
8
BLACK
10
105.0164999999999935
20
-113.723399999999998
40
0.175
0
CIRCLE
8
BLACK
10
84.9964999999999975
20
-36.5233999999999952
40
0.175
0
CIRCLE
8
BLACK
10
85.4964999999999975
20
-41.6734000000000009
40
0.175
0
CIRCLE
8
BLACK
10
90.4964999999999975
20
-36.5233999999999952
40
0.175
0
CIRCLE
8
BLACK
10
95.9964999999999975
20
-36.5233999999999952
40
0.175
0
CIRCLE
8
BLACK
10
90.4964999999999975
20
-30.6234000000000002
40
0.175
0
CIRCLE
8
BLACK
10
95.4964999999999975
20
-32.723399999999998
40
0.175
0
CIRCLE
8
BLACK
10
182.6277499999999918
20
-55.5733999999999995
40
0.175
0
CIRCLE
8
BLACK
10
183.1277499999999918
20
-60.723399999999998
40
0.175
0
CIRCLE
8
BLACK
10
188.1277499999999918
20
-55.5733999999999995
40
0.175
0
CIRCLE
8
BLACK
10
193.6277499999999918
20
-55.5733999999999995
40
0.175
0
CIRCLE
8
BLACK
10
188.1277499999999918
20
-49.6734000000000009
40
0.175
0
CIRCLE
8
BLACK
10
193.1277499999999918
20
-51.7733999999999952
40
0.175
0
CIRCLE
8
BLACK
10
200.2364999999999782
20
-63.7134
40
0.175
0
CIRCLE
8
BLACK
10
165.9590000000000032
20
-93.6734000000000009
40
0.175
0
CIRCLE
8
BLACK
10
166.4590000000000032
20
-98.8233999999999924
40
0.175
0
CIRCLE
8
BLACK
10
171.4590000000000032
20
-93.6734000000000009
40
0.175
0
CIRCLE
8
BLACK
10
176.9590000000000032
20
-93.6734000000000009
40
0.175
0
CIRCLE
8
BLACK
10
171.4590000000000032
20
-87.7733999999999952
40
0.175
0
CIRCLE
8
BLACK
10
176.4590000000000032
20
-89.8733999999999895
40
0.175
0
CIRCLE
8
BLACK
10
92.8459999999999894
20
-86.6884000000000015
40
0.175
0
CIRCLE
8
BLACK
10
92.8459999999999894
20
-101.8983999999999952
40
0.175
0
CIRCLE
8
BLACK
10
116.7219999999999942
20
-86.6884000000000015
40
0.175
0
CIRCLE
8
BLACK
10
116.7219999999999942
20
-101.8983999999999952
40
0.175
0
CIRCLE
8
BLACK
10
119.0564999999999998
20
-46.0733999999999995
40
0.175
0
CIRCLE
8
BLACK
10
68.6064999999999969
20
-58.7633999999999972
40
0.175
0
CIRCLE
8
BLACK
10
73.6064999999999969
20
-58.7633999999999972
40
0.175
0
CIRCLE
8
BLACK
10
68.6064999999999969
20
-73.2633999999999901
40
0.175
0
CIRCLE
8
BLACK
10
73.6064999999999969
20
-73.2633999999999901
40
0.175
0
CIRCLE
8
BLACK
10
71.1064999999999969
20
-73.2633999999999901
40
0.175
0
CIRCLE
8
BLACK
10
65.4064999999999941
20
-65.7633999999999901
40
0.175
0
CIRCLE
8
BLACK
10
76.8064999999999998
20
-65.7633999999999901
40
0.175
0
CIRCLE
8
BLACK
10
89.7590000000000003
20
-74.6233999999999895
40
0.175
0
CIRCLE
8
BLACK
10
90.2590000000000003
20
-79.7733999999999952
40
0.175
0
CIRCLE
8
BLACK
10
95.2590000000000003
20
-74.6233999999999895
40
0.175
0
CIRCLE
8
BLACK
10
100.7590000000000003
20
-74.6233999999999895
40
0.175
0
CIRCLE
8
BLACK
10
95.2590000000000003
20
-68.723399999999998
40
0.175
0
CIRCLE
8
BLACK
10
100.2590000000000003
20
-70.8233999999999924
40
0.175
0
CIRCLE
8
BLACK
10
104.0464999999999947
20
-55.5733999999999995
40
0.175
0
CIRCLE
8
BLACK
10
104.5464999999999947
20
-60.723399999999998
40
0.175
0
CIRCLE
8
BLACK
10
109.5464999999999947
20
-55.5733999999999995
40
0.175
0
CIRCLE
8
BLACK
10
115.0464999999999947
20
-55.5733999999999995
40
0.175
0
CIRCLE
8
BLACK
10
109.5464999999999947
20
-49.6734000000000009
40
0.175
0
CIRCLE
8
BLACK
10
114.5464999999999947
20
-51.7733999999999952
40
0.175
0
CIRCLE
8
BLACK
10
185.0089999999999861
20
-74.6233999999999895
40
0.175
0
CIRCLE
8
BLACK
10
185.5089999999999861
20
-79.7733999999999952
40
0.175
0
CIRCLE
8
BLACK
10
190.5089999999999861
20
-74.6233999999999895
40
0.175
0
CIRCLE
8
BLACK
10
196.0089999999999861
20
-74.6233999999999895
40
0.175
0
CIRCLE
8
BLACK
10
190.5089999999999861
20
-68.723399999999998
40
0.175
0
CIRCLE
8
BLACK
10
195.5089999999999861
20
-70.8233999999999924
40
0.175
0
CIRCLE
8
BLACK
10
68.5865000000000009
20
-38.8134000000000015
40
0.175
0
CIRCLE
8
BLACK
10
73.5865000000000009
20
-38.8134000000000015
40
0.175
0
CIRCLE
8
BLACK
10
68.5865000000000009
20
-53.3133999999999943
40
0.175
0
CIRCLE
8
BLACK
10
73.5865000000000009
20
-53.3133999999999943
40
0.175
0
CIRCLE
8
BLACK
10
71.0865000000000009
20
-53.3133999999999943
40
0.175
0
CIRCLE
8
BLACK
10
65.3864999999999981
20
-45.8134000000000015
40
0.175
0
CIRCLE
8
BLACK
10
76.7864999999999895
20
-45.8134000000000015
40
0.175
0
CIRCLE
8
BLACK
10
161.1964999999999861
20
-36.5233999999999952
40
0.175
0
CIRCLE
8
BLACK
10
161.6964999999999861
20
-41.6734000000000009
40
0.175
0
CIRCLE
8
BLACK
10
166.6964999999999861
20
-36.5233999999999952
40
0.175
0
CIRCLE
8
BLACK
10
172.1964999999999861
20
-36.5233999999999952
40
0.175
0
CIRCLE
8
BLACK
10
166.6964999999999861
20
-30.6234000000000002
40
0.175
0
CIRCLE
8
BLACK
10
171.6964999999999861
20
-32.723399999999998
40
0.175
0
CIRCLE
8
BLACK
10
123.0964999999999918
20
-36.5233999999999952
40
0.175
0
CIRCLE
8
BLACK
10
123.5964999999999918
20
-41.6734000000000009
40
0.175
0
CIRCLE
8
BLACK
10
128.5964999999999918
20
-36.5233999999999952
40
0.175
0
CIRCLE
8
BLACK
10
134.0964999999999918
20
-36.5233999999999952
40
0.175
0
CIRCLE
8
BLACK
10
128.5964999999999918
20
-30.6234000000000002
40
0.175
0
CIRCLE
8
BLACK
10
133.5964999999999918
20
-32.723399999999998
40
0.175
0
CIRCLE
8
BLACK
10
142.1465000000000032
20
-36.5233999999999952
40
0.175
0
CIRCLE
8
BLACK
10
142.6465000000000032
20
-41.6734000000000009
40
0.175
0
CIRCLE
8
BLACK
10
147.6465000000000032
20
-36.5233999999999952
40
0.175
0
CIRCLE
8
BLACK
10
153.1465000000000032
20
-36.5233999999999952
40
0.175
0
CIRCLE
8
BLACK
10
147.6465000000000032
20
-30.6234000000000002
40
0.175
0
CIRCLE
8
BLACK
10
152.6465000000000032
20
-32.723399999999998
40
0.175
0
CIRCLE
8
BLACK
10
182.6277499999999918
20
-36.5233999999999952
40
0.175
0
CIRCLE
8
BLACK
10
183.1277499999999918
20
-41.6734000000000009
40
0.175
0
CIRCLE
8
BLACK
10
188.1277499999999918
20
-36.5233999999999952
40
0.175
0
CIRCLE
8
BLACK
10
193.6277499999999918
20
-36.5233999999999952
40
0.175
0
CIRCLE
8
BLACK
10
188.1277499999999918
20
-30.6234000000000002
40
0.175
0
CIRCLE
8
BLACK
10
193.1277499999999918
20
-32.723399999999998
40
0.175
0
CIRCLE
8
BLACK
10
134.0004999999999882
20
-118.5803999999999974
40
0.175
0
CIRCLE
8
BLACK
10
62.0864999999999938
20
-80.4433999999999969
40
0.175
0
CIRCLE
8
BLACK
10
79.9364999999999952
20
-56.5533999999999963
40
0.15
0
CIRCLE
8
BLACK
10
80.9364999999999952
20
-56.5533999999999963
40
0.15
0
CIRCLE
8
BLACK
10
79.9364999999999952
20
-55.6533999999999978
40
0.15
0
CIRCLE
8
BLACK
10
80.9364999999999952
20
-55.6533999999999978
40
0.15
0
CIRCLE
8
BLACK
10
79.9364999999999952
20
-54.7533999999999992
40
0.15
0
CIRCLE
8
BLACK
10
80.9364999999999952
20
-54.7533999999999992
40
0.15
0
CIRCLE
8
BLACK
10
61.5165000000000006
20
-32.1533999999999978
40
0.175
0
CIRCLE
8
BLACK
10
67.2964999999999947
20
-32.1533999999999978
40
0.175
0
LINE
8
BLACK
6
CONTINUOUS
10
59.7864999999999966
20
-28.2033999999999985
11
59.7864999999999966
21
-28.8033999999999999
0
ARC
8
BLACK
10
60.0864999999999938
20
-28.8033999999999999
40
0.3
50
-180.00000000
51
0.00000000
0
LINE
8
BLACK
6
CONTINUOUS
10
60.3864999999999981
20
-28.8033999999999999
11
60.3864999999999981
21
-28.2033999999999985
0
ARC
8
BLACK
10
60.0864999999999938
20
-28.2033999999999985
40
0.3
50
0.00000000
51
180.00000000
0
LINE
8
BLACK
6
CONTINUOUS
10
59.7864999999999966
20
-32.1334000000000017
11
59.7864999999999966
21
-33.2333999999999961
0
ARC
8
BLACK
10
60.0864999999999938
20
-33.2333999999999961
40
0.3
50
-180.00000000
51
0.00000000
0
LINE
8
BLACK
6
CONTINUOUS
10
60.3864999999999981
20
-33.2333999999999961
11
60.3864999999999981
21
-32.1334000000000017
0
ARC
8
BLACK
10
60.0864999999999938
20
-32.1334000000000017
40
0.3
50
0.00000000
51
180.00000000
0
LINE
8
BLACK
6
CONTINUOUS
10
68.4264999999999901
20
-28.2033999999999985
11
68.4264999999999901
21
-28.8033999999999999
0
ARC
8
BLACK
10
68.7265000000000015
20
-28.8033999999999999
40
0.3
50
-180.00000000
51
0.00000000
0
LINE
8
BLACK
6
CONTINUOUS
10
69.0264999999999986
20
-28.8033999999999999
11
69.0264999999999986
21
-28.2033999999999985
0
ARC
8
BLACK
10
68.7265000000000015
20
-28.2033999999999985
40
0.3
50
0.00000000
51
180.00000000
0
LINE
8
BLACK
6
CONTINUOUS
10
68.4264999999999901
20
-32.1334000000000017
11
68.4264999999999901
21
-33.2333999999999961
0
ARC
8
BLACK
10
68.7265000000000015
20
-33.2333999999999961
40
0.3
50
-180.00000000
51
0.00000000
0
LINE
8
BLACK
6
CONTINUOUS
10
69.0264999999999986
20
-33.2333999999999961
11
69.0264999999999986
21
-32.1334000000000017
0
ARC
8
BLACK
10
68.7265000000000015
20
-32.1334000000000017
40
0.3
50
0.00000000
51
180.00000000
0
CIRCLE
8
BLACK
10
76.9064999999999941
20
-32.4483999999999995
40
0.175
0
CIRCLE
8
BLACK
10
79.4465000000000003
20
-32.4483999999999995
40
0.175
0
CIRCLE
8
BLACK
10
74.366500000000002
20
-32.4483999999999995
40
0.175
  0
ENDSEC
  0
EOF
