  0
SECTION
  2
HEADER
  9
$ANGBASE
  50
0.0
  9
$ANGDIR
  70
1
  9
$MEASUREMENT
  70
1
  0
ENDSEC
  0
SECTION
  2
TABLES
  0
TABLE
  2
LTYPE
  70
4
  0
LTYPE
  5
40F
  2
CONTINUOUS
  70
0
  3
Solid line
  72
65
  73
0
  40
0.0
  0
LTYPE
  5
410
  2
DASHDOT
 70
0
  3
Dash Dot ____ _ ____ _
 72
65
 73
4
 40
2.0
 49
1.25
 49
-0.25
 49
0.25
 49
-0.25
  0
LTYPE
  5
411
  2
DASHED
 70
0
  3
Dashed __ __ __ __ __
 72
65
 73
2
 40
0.75
 49
0.5
 49
-0.25
  0
LTYPE
  5
43B
  2
DOTTED
 70
0
  3
Dotted .  .  .  .
 72
65
 73
2
 40
0.2
 49
0.0
 49
-0.2
  0
ENDTAB
  0
TABLE
  2
STYLE
  70
4
  0
STYLE
  2
KICAD
  70
0
  40
0
  41
1
  42
1
  50
0
  71
0
  3
isocp.shx
  0
STYLE
  2
KICADB
  70
0
  40
0
  41
1
  42
1
  50
0
  71
0
  3
isocp.shx
  0
STYLE
  2
KICADI
  70
0
  40
0
  41
1
  42
1
  50
15
  71
0
  3
isocp.shx
  0
STYLE
  2
KICADBI
  70
0
  40
0
  41
1
  42
1
  50
15
  71
0
  3
isocp.shx
  0
ENDTAB
  0
TABLE
  2
LAYER
  70
1
  0
LAYER
  2
BLACK
  70
0
  62
7
  6
CONTINUOUS
  0
ENDTAB
  0
ENDSEC
  0
SECTION
  2
ENTITIES
0
LINE
8
BLACK
6
CONTINUOUS
10
67.6064999999999969
20
-96.5742439999999931
11
66.5065000000000026
21
-96.5742439999999931
0
LINE
8
BLACK
6
CONTINUOUS
10
66.5065000000000026
20
-96.5742439999999931
11
66.5065000000000026
21
-95.8742439999999903
0
LINE
8
BLACK
6
CONTINUOUS
10
66.5065000000000026
20
-95.8742439999999903
11
66.0065000000000026
21
-95.8742439999999903
0
LINE
8
BLACK
6
CONTINUOUS
10
66.0065000000000026
20
-95.8742439999999903
11
66.0065000000000026
21
-95.1742440000000016
0
LINE
8
BLACK
6
CONTINUOUS
10
66.0065000000000026
20
-95.1742440000000016
11
66.0065000000000026
21
-93.9242440000000016
0
LINE
8
BLACK
6
CONTINUOUS
10
66.0065000000000026
20
-93.9242440000000016
11
68.3064999999999998
21
-93.9242440000000016
0
LINE
8
BLACK
6
CONTINUOUS
10
68.3064999999999998
20
-93.9242440000000016
11
68.3064999999999998
21
-95.1742440000000016
0
LINE
8
BLACK
6
CONTINUOUS
10
68.3064999999999998
20
-95.1742440000000016
11
67.6064999999999969
21
-95.1742440000000016
0
LINE
8
BLACK
6
CONTINUOUS
10
67.6064999999999969
20
-95.1742440000000016
11
67.6064999999999969
21
-95.8742439999999903
0
LINE
8
BLACK
6
CONTINUOUS
10
67.6064999999999969
20
-95.8742439999999903
11
67.6064999999999969
21
-96.5742439999999931
0
LINE
8
BLACK
6
CONTINUOUS
10
66.6064999999999969
20
-93.6242439999999903
11
65.2064999999999912
21
-93.6242439999999903
0
LINE
8
BLACK
6
CONTINUOUS
10
65.2064999999999912
20
-93.6242439999999903
11
65.2064999999999912
21
-93.3242439999999931
0
LINE
8
BLACK
6
CONTINUOUS
10
65.2064999999999912
20
-93.3242439999999931
11
66.6064999999999969
21
-93.3242439999999931
0
LINE
8
BLACK
6
CONTINUOUS
10
66.6064999999999969
20
-93.3242439999999931
11
66.6064999999999969
21
-93.6242439999999903
0
LINE
8
BLACK
6
CONTINUOUS
10
66.6064999999999969
20
-93.1242439999999903
11
65.2064999999999912
21
-93.1242439999999903
0
LINE
8
BLACK
6
CONTINUOUS
10
65.2064999999999912
20
-93.1242439999999903
11
65.2064999999999912
21
-92.8242439999999931
0
LINE
8
BLACK
6
CONTINUOUS
10
65.2064999999999912
20
-92.8242439999999931
11
66.6064999999999969
21
-92.8242439999999931
0
LINE
8
BLACK
6
CONTINUOUS
10
66.6064999999999969
20
-92.8242439999999931
11
66.6064999999999969
21
-93.1242439999999903
0
LINE
8
BLACK
6
CONTINUOUS
10
66.6064999999999969
20
-92.6242439999999903
11
65.2064999999999912
21
-92.6242439999999903
0
LINE
8
BLACK
6
CONTINUOUS
10
65.2064999999999912
20
-92.6242439999999903
11
65.2064999999999912
21
-92.3242439999999931
0
LINE
8
BLACK
6
CONTINUOUS
10
65.2064999999999912
20
-92.3242439999999931
11
66.6064999999999969
21
-92.3242439999999931
0
LINE
8
BLACK
6
CONTINUOUS
10
66.6064999999999969
20
-92.3242439999999931
11
66.6064999999999969
21
-92.6242439999999903
0
LINE
8
BLACK
6
CONTINUOUS
10
66.6064999999999969
20
-92.1242439999999903
11
65.2064999999999912
21
-92.1242439999999903
0
LINE
8
BLACK
6
CONTINUOUS
10
65.2064999999999912
20
-92.1242439999999903
11
65.2064999999999912
21
-91.8242439999999931
0
LINE
8
BLACK
6
CONTINUOUS
10
65.2064999999999912
20
-91.8242439999999931
11
66.6064999999999969
21
-91.8242439999999931
0
LINE
8
BLACK
6
CONTINUOUS
10
66.6064999999999969
20
-91.8242439999999931
11
66.6064999999999969
21
-92.1242439999999903
0
LINE
8
BLACK
6
CONTINUOUS
10
66.6064999999999969
20
-91.6242439999999903
11
65.2064999999999912
21
-91.6242439999999903
0
LINE
8
BLACK
6
CONTINUOUS
10
65.2064999999999912
20
-91.6242439999999903
11
65.2064999999999912
21
-91.3242439999999931
0
LINE
8
BLACK
6
CONTINUOUS
10
65.2064999999999912
20
-91.3242439999999931
11
66.6064999999999969
21
-91.3242439999999931
0
LINE
8
BLACK
6
CONTINUOUS
10
66.6064999999999969
20
-91.3242439999999931
11
66.6064999999999969
21
-91.6242439999999903
0
LINE
8
BLACK
6
CONTINUOUS
10
66.6064999999999969
20
-91.1242439999999903
11
65.2064999999999912
21
-91.1242439999999903
0
LINE
8
BLACK
6
CONTINUOUS
10
65.2064999999999912
20
-91.1242439999999903
11
65.2064999999999912
21
-90.8242439999999931
0
LINE
8
BLACK
6
CONTINUOUS
10
65.2064999999999912
20
-90.8242439999999931
11
66.6064999999999969
21
-90.8242439999999931
0
LINE
8
BLACK
6
CONTINUOUS
10
66.6064999999999969
20
-90.8242439999999931
11
66.6064999999999969
21
-91.1242439999999903
0
LINE
8
BLACK
6
CONTINUOUS
10
63.5126039999999961
20
-90.0955269999999899
11
63.5855989999999949
21
-90.1443009999999987
0
LINE
8
BLACK
6
CONTINUOUS
10
63.5855989999999949
20
-90.1443009999999987
11
63.6343729999999965
21
-90.2172959999999904
0
LINE
8
BLACK
6
CONTINUOUS
10
63.6343729999999965
20
-90.2172959999999904
11
63.6514999999999986
21
-90.3033999999999963
0
LINE
8
BLACK
6
CONTINUOUS
10
63.6514999999999986
20
-90.3033999999999963
11
63.6514999999999986
21
-90.7533999999999992
0
LINE
8
BLACK
6
CONTINUOUS
10
63.6514999999999986
20
-90.7533999999999992
11
63.6343729999999965
21
-90.8395039999999909
0
LINE
8
BLACK
6
CONTINUOUS
10
63.6343729999999965
20
-90.8395039999999909
11
63.5855989999999949
21
-90.9124989999999968
0
LINE
8
BLACK
6
CONTINUOUS
10
63.5855989999999949
20
-90.9124989999999968
11
63.5126039999999961
21
-90.9612729999999914
0
LINE
8
BLACK
6
CONTINUOUS
10
63.5126039999999961
20
-90.9612729999999914
11
63.4264999999999972
21
-90.9783999999999935
0
LINE
8
BLACK
6
CONTINUOUS
10
63.4264999999999972
20
-90.9783999999999935
11
62.9264999999999972
21
-90.9783999999999935
0
LINE
8
BLACK
6
CONTINUOUS
10
62.9264999999999972
20
-90.9783999999999935
11
62.8403959999999984
21
-90.9612729999999914
0
LINE
8
BLACK
6
CONTINUOUS
10
62.8403959999999984
20
-90.9612729999999914
11
62.7674009999999996
21
-90.9124989999999968
0
LINE
8
BLACK
6
CONTINUOUS
10
62.7674009999999996
20
-90.9124989999999968
11
62.7186269999999979
21
-90.8395039999999909
0
LINE
8
BLACK
6
CONTINUOUS
10
62.7186269999999979
20
-90.8395039999999909
11
62.7014999999999958
21
-90.7533999999999992
0
LINE
8
BLACK
6
CONTINUOUS
10
62.7014999999999958
20
-90.7533999999999992
11
62.7014999999999958
21
-90.3033999999999963
0
LINE
8
BLACK
6
CONTINUOUS
10
62.7014999999999958
20
-90.3033999999999963
11
62.7186269999999979
21
-90.2172959999999904
0
LINE
8
BLACK
6
CONTINUOUS
10
62.7186269999999979
20
-90.2172959999999904
11
62.7674009999999996
21
-90.1443009999999987
0
LINE
8
BLACK
6
CONTINUOUS
10
62.7674009999999996
20
-90.1443009999999987
11
62.8403959999999984
21
-90.0955269999999899
0
LINE
8
BLACK
6
CONTINUOUS
10
62.8403959999999984
20
-90.0955269999999899
11
62.9264999999999972
21
-90.078400000000002
0
LINE
8
BLACK
6
CONTINUOUS
10
62.9264999999999972
20
-90.078400000000002
11
63.4264999999999972
21
-90.078400000000002
0
LINE
8
BLACK
6
CONTINUOUS
10
63.4264999999999972
20
-90.078400000000002
11
63.5126039999999961
21
-90.0955269999999899
0
LINE
8
BLACK
6
CONTINUOUS
10
66.6064999999999969
20
-90.6242439999999903
11
65.2064999999999912
21
-90.6242439999999903
0
LINE
8
BLACK
6
CONTINUOUS
10
65.2064999999999912
20
-90.6242439999999903
11
65.2064999999999912
21
-90.3242439999999931
0
LINE
8
BLACK
6
CONTINUOUS
10
65.2064999999999912
20
-90.3242439999999931
11
66.6064999999999969
21
-90.3242439999999931
0
LINE
8
BLACK
6
CONTINUOUS
10
66.6064999999999969
20
-90.3242439999999931
11
66.6064999999999969
21
-90.6242439999999903
0
LINE
8
BLACK
6
CONTINUOUS
10
66.6064999999999969
20
-90.1242439999999903
11
65.2064999999999912
21
-90.1242439999999903
0
LINE
8
BLACK
6
CONTINUOUS
10
65.2064999999999912
20
-90.1242439999999903
11
65.2064999999999912
21
-89.8242439999999931
0
LINE
8
BLACK
6
CONTINUOUS
10
65.2064999999999912
20
-89.8242439999999931
11
66.6064999999999969
21
-89.8242439999999931
0
LINE
8
BLACK
6
CONTINUOUS
10
66.6064999999999969
20
-89.8242439999999931
11
66.6064999999999969
21
-90.1242439999999903
0
LINE
8
BLACK
6
CONTINUOUS
10
66.6064999999999969
20
-89.6242439999999903
11
65.2064999999999912
21
-89.6242439999999903
0
LINE
8
BLACK
6
CONTINUOUS
10
65.2064999999999912
20
-89.6242439999999903
11
65.2064999999999912
21
-89.3242439999999931
0
LINE
8
BLACK
6
CONTINUOUS
10
65.2064999999999912
20
-89.3242439999999931
11
66.6064999999999969
21
-89.3242439999999931
0
LINE
8
BLACK
6
CONTINUOUS
10
66.6064999999999969
20
-89.3242439999999931
11
66.6064999999999969
21
-89.6242439999999903
0
LINE
8
BLACK
6
CONTINUOUS
10
63.5126039999999961
20
-88.5455269999999928
11
63.5855989999999949
21
-88.5943010000000015
0
LINE
8
BLACK
6
CONTINUOUS
10
63.5855989999999949
20
-88.5943010000000015
11
63.6343729999999965
21
-88.6672959999999932
0
LINE
8
BLACK
6
CONTINUOUS
10
63.6343729999999965
20
-88.6672959999999932
11
63.6514999999999986
21
-88.7533999999999992
0
LINE
8
BLACK
6
CONTINUOUS
10
63.6514999999999986
20
-88.7533999999999992
11
63.6514999999999986
21
-89.203400000000002
0
LINE
8
BLACK
6
CONTINUOUS
10
63.6514999999999986
20
-89.203400000000002
11
63.6343729999999965
21
-89.2895039999999938
0
LINE
8
BLACK
6
CONTINUOUS
10
63.6343729999999965
20
-89.2895039999999938
11
63.5855989999999949
21
-89.3624989999999997
0
LINE
8
BLACK
6
CONTINUOUS
10
63.5855989999999949
20
-89.3624989999999997
11
63.5126039999999961
21
-89.4112729999999942
0
LINE
8
BLACK
6
CONTINUOUS
10
63.5126039999999961
20
-89.4112729999999942
11
63.4264999999999972
21
-89.4283999999999963
0
LINE
8
BLACK
6
CONTINUOUS
10
63.4264999999999972
20
-89.4283999999999963
11
62.9264999999999972
21
-89.4283999999999963
0
LINE
8
BLACK
6
CONTINUOUS
10
62.9264999999999972
20
-89.4283999999999963
11
62.8403959999999984
21
-89.4112729999999942
0
LINE
8
BLACK
6
CONTINUOUS
10
62.8403959999999984
20
-89.4112729999999942
11
62.7674009999999996
21
-89.3624989999999997
0
LINE
8
BLACK
6
CONTINUOUS
10
62.7674009999999996
20
-89.3624989999999997
11
62.7186269999999979
21
-89.2895039999999938
0
LINE
8
BLACK
6
CONTINUOUS
10
62.7186269999999979
20
-89.2895039999999938
11
62.7014999999999958
21
-89.203400000000002
0
LINE
8
BLACK
6
CONTINUOUS
10
62.7014999999999958
20
-89.203400000000002
11
62.7014999999999958
21
-88.7533999999999992
0
LINE
8
BLACK
6
CONTINUOUS
10
62.7014999999999958
20
-88.7533999999999992
11
62.7186269999999979
21
-88.6672959999999932
0
LINE
8
BLACK
6
CONTINUOUS
10
62.7186269999999979
20
-88.6672959999999932
11
62.7674009999999996
21
-88.5943010000000015
0
LINE
8
BLACK
6
CONTINUOUS
10
62.7674009999999996
20
-88.5943010000000015
11
62.8403959999999984
21
-88.5455269999999928
0
LINE
8
BLACK
6
CONTINUOUS
10
62.8403959999999984
20
-88.5455269999999928
11
62.9264999999999972
21
-88.5283999999999907
0
LINE
8
BLACK
6
CONTINUOUS
10
62.9264999999999972
20
-88.5283999999999907
11
63.4264999999999972
21
-88.5283999999999907
0
LINE
8
BLACK
6
CONTINUOUS
10
63.4264999999999972
20
-88.5283999999999907
11
63.5126039999999961
21
-88.5455269999999928
0
LINE
8
BLACK
6
CONTINUOUS
10
66.6064999999999969
20
-89.1242439999999903
11
65.2064999999999912
21
-89.1242439999999903
0
LINE
8
BLACK
6
CONTINUOUS
10
65.2064999999999912
20
-89.1242439999999903
11
65.2064999999999912
21
-88.8242439999999931
0
LINE
8
BLACK
6
CONTINUOUS
10
65.2064999999999912
20
-88.8242439999999931
11
66.6064999999999969
21
-88.8242439999999931
0
LINE
8
BLACK
6
CONTINUOUS
10
66.6064999999999969
20
-88.8242439999999931
11
66.6064999999999969
21
-89.1242439999999903
0
LINE
8
BLACK
6
CONTINUOUS
10
66.6064999999999969
20
-88.6242439999999903
11
65.2064999999999912
21
-88.6242439999999903
0
LINE
8
BLACK
6
CONTINUOUS
10
65.2064999999999912
20
-88.6242439999999903
11
65.2064999999999912
21
-88.3242439999999931
0
LINE
8
BLACK
6
CONTINUOUS
10
65.2064999999999912
20
-88.3242439999999931
11
66.6064999999999969
21
-88.3242439999999931
0
LINE
8
BLACK
6
CONTINUOUS
10
66.6064999999999969
20
-88.3242439999999931
11
66.6064999999999969
21
-88.6242439999999903
0
LINE
8
BLACK
6
CONTINUOUS
10
66.6064999999999969
20
-88.1242439999999903
11
65.2064999999999912
21
-88.1242439999999903
0
LINE
8
BLACK
6
CONTINUOUS
10
65.2064999999999912
20
-88.1242439999999903
11
65.2064999999999912
21
-87.8242439999999931
0
LINE
8
BLACK
6
CONTINUOUS
10
65.2064999999999912
20
-87.8242439999999931
11
66.6064999999999969
21
-87.8242439999999931
0
LINE
8
BLACK
6
CONTINUOUS
10
66.6064999999999969
20
-87.8242439999999931
11
66.6064999999999969
21
-88.1242439999999903
0
LINE
8
BLACK
6
CONTINUOUS
10
68.3064999999999998
20
-87.5242439999999959
11
66.0065000000000026
21
-87.5242439999999959
0
LINE
8
BLACK
6
CONTINUOUS
10
66.0065000000000026
20
-87.5242439999999959
11
66.0065000000000026
21
-86.2742439999999959
0
LINE
8
BLACK
6
CONTINUOUS
10
66.0065000000000026
20
-86.2742439999999959
11
66.0065000000000026
21
-85.5742439999999931
0
LINE
8
BLACK
6
CONTINUOUS
10
66.0065000000000026
20
-85.5742439999999931
11
66.5065000000000026
21
-85.5742439999999931
0
LINE
8
BLACK
6
CONTINUOUS
10
66.5065000000000026
20
-85.5742439999999931
11
66.5065000000000026
21
-84.8742439999999903
0
LINE
8
BLACK
6
CONTINUOUS
10
66.5065000000000026
20
-84.8742439999999903
11
67.6064999999999969
21
-84.8742439999999903
0
LINE
8
BLACK
6
CONTINUOUS
10
67.6064999999999969
20
-84.8742439999999903
11
67.6064999999999969
21
-85.5742439999999931
0
LINE
8
BLACK
6
CONTINUOUS
10
67.6064999999999969
20
-85.5742439999999931
11
67.6064999999999969
21
-86.2742439999999959
0
LINE
8
BLACK
6
CONTINUOUS
10
67.6064999999999969
20
-86.2742439999999959
11
68.3064999999999998
21
-86.2742439999999959
0
LINE
8
BLACK
6
CONTINUOUS
10
68.3064999999999998
20
-86.2742439999999959
11
68.3064999999999998
21
-87.5242439999999959
0
LINE
8
BLACK
6
CONTINUOUS
10
71.1426039999999915
20
-32.835526999999999
11
71.2155989999999974
21
-32.8843010000000007
0
LINE
8
BLACK
6
CONTINUOUS
10
71.2155989999999974
20
-32.8843010000000007
11
71.264372999999992
21
-32.9572959999999995
0
LINE
8
BLACK
6
CONTINUOUS
10
71.264372999999992
20
-32.9572959999999995
11
71.2814999999999941
21
-33.0433999999999983
0
LINE
8
BLACK
6
CONTINUOUS
10
71.2814999999999941
20
-33.0433999999999983
11
71.2814999999999941
21
-33.5433999999999983
0
LINE
8
BLACK
6
CONTINUOUS
10
71.2814999999999941
20
-33.5433999999999983
11
71.264372999999992
21
-33.6295039999999972
0
LINE
8
BLACK
6
CONTINUOUS
10
71.264372999999992
20
-33.6295039999999972
11
71.2155989999999974
21
-33.702498999999996
0
LINE
8
BLACK
6
CONTINUOUS
10
71.2155989999999974
20
-33.702498999999996
11
71.1426039999999915
21
-33.7512729999999976
0
LINE
8
BLACK
6
CONTINUOUS
10
71.1426039999999915
20
-33.7512729999999976
11
71.0564999999999998
21
-33.7683999999999997
0
LINE
8
BLACK
6
CONTINUOUS
10
71.0564999999999998
20
-33.7683999999999997
11
70.6064999999999969
21
-33.7683999999999997
0
LINE
8
BLACK
6
CONTINUOUS
10
70.6064999999999969
20
-33.7683999999999997
11
70.520395999999991
21
-33.7512729999999976
0
LINE
8
BLACK
6
CONTINUOUS
10
70.520395999999991
20
-33.7512729999999976
11
70.4474009999999993
21
-33.702498999999996
0
LINE
8
BLACK
6
CONTINUOUS
10
70.4474009999999993
20
-33.702498999999996
11
70.3986269999999905
21
-33.6295039999999972
0
LINE
8
BLACK
6
CONTINUOUS
10
70.3986269999999905
20
-33.6295039999999972
11
70.3815000000000026
21
-33.5433999999999983
0
LINE
8
BLACK
6
CONTINUOUS
10
70.3815000000000026
20
-33.5433999999999983
11
70.3815000000000026
21
-33.0433999999999983
0
LINE
8
BLACK
6
CONTINUOUS
10
70.3815000000000026
20
-33.0433999999999983
11
70.3986269999999905
21
-32.9572959999999995
0
LINE
8
BLACK
6
CONTINUOUS
10
70.3986269999999905
20
-32.9572959999999995
11
70.4474009999999993
21
-32.8843010000000007
0
LINE
8
BLACK
6
CONTINUOUS
10
70.4474009999999993
20
-32.8843010000000007
11
70.520395999999991
21
-32.835526999999999
0
LINE
8
BLACK
6
CONTINUOUS
10
70.520395999999991
20
-32.835526999999999
11
70.6064999999999969
21
-32.8183999999999969
0
LINE
8
BLACK
6
CONTINUOUS
10
70.6064999999999969
20
-32.8183999999999969
11
71.0564999999999998
21
-32.8183999999999969
0
LINE
8
BLACK
6
CONTINUOUS
10
71.0564999999999998
20
-32.8183999999999969
11
71.1426039999999915
21
-32.835526999999999
0
LINE
8
BLACK
6
CONTINUOUS
10
72.6926040000000029
20
-32.835526999999999
11
72.7655989999999946
21
-32.8843010000000007
0
LINE
8
BLACK
6
CONTINUOUS
10
72.7655989999999946
20
-32.8843010000000007
11
72.8143730000000033
21
-32.9572959999999995
0
LINE
8
BLACK
6
CONTINUOUS
10
72.8143730000000033
20
-32.9572959999999995
11
72.8314999999999912
21
-33.0433999999999983
0
LINE
8
BLACK
6
CONTINUOUS
10
72.8314999999999912
20
-33.0433999999999983
11
72.8314999999999912
21
-33.5433999999999983
0
LINE
8
BLACK
6
CONTINUOUS
10
72.8314999999999912
20
-33.5433999999999983
11
72.8143730000000033
21
-33.6295039999999972
0
LINE
8
BLACK
6
CONTINUOUS
10
72.8143730000000033
20
-33.6295039999999972
11
72.7655989999999946
21
-33.702498999999996
0
LINE
8
BLACK
6
CONTINUOUS
10
72.7655989999999946
20
-33.702498999999996
11
72.6926040000000029
21
-33.7512729999999976
0
LINE
8
BLACK
6
CONTINUOUS
10
72.6926040000000029
20
-33.7512729999999976
11
72.6064999999999969
21
-33.7683999999999997
0
LINE
8
BLACK
6
CONTINUOUS
10
72.6064999999999969
20
-33.7683999999999997
11
72.1564999999999941
21
-33.7683999999999997
0
LINE
8
BLACK
6
CONTINUOUS
10
72.1564999999999941
20
-33.7683999999999997
11
72.0703960000000023
21
-33.7512729999999976
0
LINE
8
BLACK
6
CONTINUOUS
10
72.0703960000000023
20
-33.7512729999999976
11
71.9974009999999964
21
-33.702498999999996
0
LINE
8
BLACK
6
CONTINUOUS
10
71.9974009999999964
20
-33.702498999999996
11
71.9486270000000019
21
-33.6295039999999972
0
LINE
8
BLACK
6
CONTINUOUS
10
71.9486270000000019
20
-33.6295039999999972
11
71.9314999999999998
21
-33.5433999999999983
0
LINE
8
BLACK
6
CONTINUOUS
10
71.9314999999999998
20
-33.5433999999999983
11
71.9314999999999998
21
-33.0433999999999983
0
LINE
8
BLACK
6
CONTINUOUS
10
71.9314999999999998
20
-33.0433999999999983
11
71.9486270000000019
21
-32.9572959999999995
0
LINE
8
BLACK
6
CONTINUOUS
10
71.9486270000000019
20
-32.9572959999999995
11
71.9974009999999964
21
-32.8843010000000007
0
LINE
8
BLACK
6
CONTINUOUS
10
71.9974009999999964
20
-32.8843010000000007
11
72.0703960000000023
21
-32.835526999999999
0
LINE
8
BLACK
6
CONTINUOUS
10
72.0703960000000023
20
-32.835526999999999
11
72.1564999999999941
21
-32.8183999999999969
0
LINE
8
BLACK
6
CONTINUOUS
10
72.1564999999999941
20
-32.8183999999999969
11
72.6064999999999969
21
-32.8183999999999969
0
LINE
8
BLACK
6
CONTINUOUS
10
72.6064999999999969
20
-32.8183999999999969
11
72.6926040000000029
21
-32.835526999999999
0
LINE
8
BLACK
6
CONTINUOUS
10
81.496461999999994
20
-30.850050999999997
11
81.5674300000000017
21
-30.8974699999999984
0
LINE
8
BLACK
6
CONTINUOUS
10
81.5674300000000017
20
-30.8974699999999984
11
81.6148489999999924
21
-30.968437999999999
0
LINE
8
BLACK
6
CONTINUOUS
10
81.6148489999999924
20
-30.968437999999999
11
81.6315000000000026
21
-31.0521499999999975
0
LINE
8
BLACK
6
CONTINUOUS
10
81.6315000000000026
20
-31.0521499999999975
11
81.6315000000000026
21
-31.4896499999999975
0
LINE
8
BLACK
6
CONTINUOUS
10
81.6315000000000026
20
-31.4896499999999975
11
81.6148489999999924
21
-31.5733619999999995
0
LINE
8
BLACK
6
CONTINUOUS
10
81.6148489999999924
20
-31.5733619999999995
11
81.5674300000000017
21
-31.6443300000000001
0
LINE
8
BLACK
6
CONTINUOUS
10
81.5674300000000017
20
-31.6443300000000001
11
81.496461999999994
21
-31.6917489999999979
0
LINE
8
BLACK
6
CONTINUOUS
10
81.496461999999994
20
-31.6917489999999979
11
81.4127500000000026
21
-31.7083999999999975
0
LINE
8
BLACK
6
CONTINUOUS
10
81.4127500000000026
20
-31.7083999999999975
11
80.9002499999999998
21
-31.7083999999999975
0
LINE
8
BLACK
6
CONTINUOUS
10
80.9002499999999998
20
-31.7083999999999975
11
80.8165379999999942
21
-31.6917489999999979
0
LINE
8
BLACK
6
CONTINUOUS
10
80.8165379999999942
20
-31.6917489999999979
11
80.7455700000000007
21
-31.6443300000000001
0
LINE
8
BLACK
6
CONTINUOUS
10
80.7455700000000007
20
-31.6443300000000001
11
80.6981509999999957
21
-31.5733619999999995
0
LINE
8
BLACK
6
CONTINUOUS
10
80.6981509999999957
20
-31.5733619999999995
11
80.6814999999999998
21
-31.4896499999999975
0
LINE
8
BLACK
6
CONTINUOUS
10
80.6814999999999998
20
-31.4896499999999975
11
80.6814999999999998
21
-31.0521499999999975
0
LINE
8
BLACK
6
CONTINUOUS
10
80.6814999999999998
20
-31.0521499999999975
11
80.6981509999999957
21
-30.968437999999999
0
LINE
8
BLACK
6
CONTINUOUS
10
80.6981509999999957
20
-30.968437999999999
11
80.7455700000000007
21
-30.8974699999999984
0
LINE
8
BLACK
6
CONTINUOUS
10
80.7455700000000007
20
-30.8974699999999984
11
80.8165379999999942
21
-30.850050999999997
0
LINE
8
BLACK
6
CONTINUOUS
10
80.8165379999999942
20
-30.850050999999997
11
80.9002499999999998
21
-30.8333999999999975
0
LINE
8
BLACK
6
CONTINUOUS
10
80.9002499999999998
20
-30.8333999999999975
11
81.4127500000000026
21
-30.8333999999999975
0
LINE
8
BLACK
6
CONTINUOUS
10
81.4127500000000026
20
-30.8333999999999975
11
81.496461999999994
21
-30.850050999999997
0
LINE
8
BLACK
6
CONTINUOUS
10
73.3626039999999904
20
-30.0055269999999972
11
73.4355989999999963
21
-30.0543009999999988
0
LINE
8
BLACK
6
CONTINUOUS
10
73.4355989999999963
20
-30.0543009999999988
11
73.4843729999999908
21
-30.1272959999999976
0
LINE
8
BLACK
6
CONTINUOUS
10
73.4843729999999908
20
-30.1272959999999976
11
73.501499999999993
21
-30.2134
0
LINE
8
BLACK
6
CONTINUOUS
10
73.501499999999993
20
-30.2134
11
73.501499999999993
21
-30.7134
0
LINE
8
BLACK
6
CONTINUOUS
10
73.501499999999993
20
-30.7134
11
73.4843729999999908
21
-30.7995039999999989
0
LINE
8
BLACK
6
CONTINUOUS
10
73.4843729999999908
20
-30.7995039999999989
11
73.4355989999999963
21
-30.8724989999999977
0
LINE
8
BLACK
6
CONTINUOUS
10
73.4355989999999963
20
-30.8724989999999977
11
73.3626039999999904
21
-30.9212729999999993
0
LINE
8
BLACK
6
CONTINUOUS
10
73.3626039999999904
20
-30.9212729999999993
11
73.2764999999999986
21
-30.9383999999999979
0
LINE
8
BLACK
6
CONTINUOUS
10
73.2764999999999986
20
-30.9383999999999979
11
72.8264999999999958
21
-30.9383999999999979
0
LINE
8
BLACK
6
CONTINUOUS
10
72.8264999999999958
20
-30.9383999999999979
11
72.7403959999999898
21
-30.9212729999999993
0
LINE
8
BLACK
6
CONTINUOUS
10
72.7403959999999898
20
-30.9212729999999993
11
72.6674009999999981
21
-30.8724989999999977
0
LINE
8
BLACK
6
CONTINUOUS
10
72.6674009999999981
20
-30.8724989999999977
11
72.6186270000000036
21
-30.7995039999999989
0
LINE
8
BLACK
6
CONTINUOUS
10
72.6186270000000036
20
-30.7995039999999989
11
72.6015000000000015
21
-30.7134
0
LINE
8
BLACK
6
CONTINUOUS
10
72.6015000000000015
20
-30.7134
11
72.6015000000000015
21
-30.2134
0
LINE
8
BLACK
6
CONTINUOUS
10
72.6015000000000015
20
-30.2134
11
72.6186270000000036
21
-30.1272959999999976
0
LINE
8
BLACK
6
CONTINUOUS
10
72.6186270000000036
20
-30.1272959999999976
11
72.6674009999999981
21
-30.0543009999999988
0
LINE
8
BLACK
6
CONTINUOUS
10
72.6674009999999981
20
-30.0543009999999988
11
72.7403959999999898
21
-30.0055269999999972
0
LINE
8
BLACK
6
CONTINUOUS
10
72.7403959999999898
20
-30.0055269999999972
11
72.8264999999999958
21
-29.9883999999999986
0
LINE
8
BLACK
6
CONTINUOUS
10
72.8264999999999958
20
-29.9883999999999986
11
73.2764999999999986
21
-29.9883999999999986
0
LINE
8
BLACK
6
CONTINUOUS
10
73.2764999999999986
20
-29.9883999999999986
11
73.3626039999999904
21
-30.0055269999999972
0
LINE
8
BLACK
6
CONTINUOUS
10
74.9126040000000017
20
-30.0055269999999972
11
74.9855989999999935
21
-30.0543009999999988
0
LINE
8
BLACK
6
CONTINUOUS
10
74.9855989999999935
20
-30.0543009999999988
11
75.0343730000000022
21
-30.1272959999999976
0
LINE
8
BLACK
6
CONTINUOUS
10
75.0343730000000022
20
-30.1272959999999976
11
75.0514999999999901
21
-30.2134
0
LINE
8
BLACK
6
CONTINUOUS
10
75.0514999999999901
20
-30.2134
11
75.0514999999999901
21
-30.7134
0
LINE
8
BLACK
6
CONTINUOUS
10
75.0514999999999901
20
-30.7134
11
75.0343730000000022
21
-30.7995039999999989
0
LINE
8
BLACK
6
CONTINUOUS
10
75.0343730000000022
20
-30.7995039999999989
11
74.9855989999999935
21
-30.8724989999999977
0
LINE
8
BLACK
6
CONTINUOUS
10
74.9855989999999935
20
-30.8724989999999977
11
74.9126040000000017
21
-30.9212729999999993
0
LINE
8
BLACK
6
CONTINUOUS
10
74.9126040000000017
20
-30.9212729999999993
11
74.8264999999999958
21
-30.9383999999999979
0
LINE
8
BLACK
6
CONTINUOUS
10
74.8264999999999958
20
-30.9383999999999979
11
74.376499999999993
21
-30.9383999999999979
0
LINE
8
BLACK
6
CONTINUOUS
10
74.376499999999993
20
-30.9383999999999979
11
74.2903960000000012
21
-30.9212729999999993
0
LINE
8
BLACK
6
CONTINUOUS
10
74.2903960000000012
20
-30.9212729999999993
11
74.2174009999999953
21
-30.8724989999999977
0
LINE
8
BLACK
6
CONTINUOUS
10
74.2174009999999953
20
-30.8724989999999977
11
74.1686270000000007
21
-30.7995039999999989
0
LINE
8
BLACK
6
CONTINUOUS
10
74.1686270000000007
20
-30.7995039999999989
11
74.1514999999999986
21
-30.7134
0
LINE
8
BLACK
6
CONTINUOUS
10
74.1514999999999986
20
-30.7134
11
74.1514999999999986
21
-30.2134
0
LINE
8
BLACK
6
CONTINUOUS
10
74.1514999999999986
20
-30.2134
11
74.1686270000000007
21
-30.1272959999999976
0
LINE
8
BLACK
6
CONTINUOUS
10
74.1686270000000007
20
-30.1272959999999976
11
74.2174009999999953
21
-30.0543009999999988
0
LINE
8
BLACK
6
CONTINUOUS
10
74.2174009999999953
20
-30.0543009999999988
11
74.2903960000000012
21
-30.0055269999999972
0
LINE
8
BLACK
6
CONTINUOUS
10
74.2903960000000012
20
-30.0055269999999972
11
74.376499999999993
21
-29.9883999999999986
0
LINE
8
BLACK
6
CONTINUOUS
10
74.376499999999993
20
-29.9883999999999986
11
74.8264999999999958
21
-29.9883999999999986
0
LINE
8
BLACK
6
CONTINUOUS
10
74.8264999999999958
20
-29.9883999999999986
11
74.9126040000000017
21
-30.0055269999999972
0
LINE
8
BLACK
6
CONTINUOUS
10
63.4580369999999974
20
-29.7136239999999994
11
63.5229209999999966
21
-29.7569789999999976
0
LINE
8
BLACK
6
CONTINUOUS
10
63.5229209999999966
20
-29.7569789999999976
11
63.5662759999999949
21
-29.8218629999999969
0
LINE
8
BLACK
6
CONTINUOUS
10
63.5662759999999949
20
-29.8218629999999969
11
63.5814999999999984
21
-29.8983999999999988
0
LINE
8
BLACK
6
CONTINUOUS
10
63.5814999999999984
20
-29.8983999999999988
11
63.5814999999999984
21
-30.2983999999999973
0
LINE
8
BLACK
6
CONTINUOUS
10
63.5814999999999984
20
-30.2983999999999973
11
63.5662759999999949
21
-30.3749369999999992
0
LINE
8
BLACK
6
CONTINUOUS
10
63.5662759999999949
20
-30.3749369999999992
11
63.5229209999999966
21
-30.4398209999999985
0
LINE
8
BLACK
6
CONTINUOUS
10
63.5229209999999966
20
-30.4398209999999985
11
63.4580369999999974
21
-30.4831760000000003
0
LINE
8
BLACK
6
CONTINUOUS
10
63.4580369999999974
20
-30.4831760000000003
11
63.3814999999999955
21
-30.4984000000000002
0
LINE
8
BLACK
6
CONTINUOUS
10
63.3814999999999955
20
-30.4984000000000002
11
62.8314999999999984
21
-30.4984000000000002
0
LINE
8
BLACK
6
CONTINUOUS
10
62.8314999999999984
20
-30.4984000000000002
11
62.7549629999999965
21
-30.4831760000000003
0
LINE
8
BLACK
6
CONTINUOUS
10
62.7549629999999965
20
-30.4831760000000003
11
62.6900789999999972
21
-30.4398209999999985
0
LINE
8
BLACK
6
CONTINUOUS
10
62.6900789999999972
20
-30.4398209999999985
11
62.646723999999999
21
-30.3749369999999992
0
LINE
8
BLACK
6
CONTINUOUS
10
62.646723999999999
20
-30.3749369999999992
11
62.6314999999999955
21
-30.2983999999999973
0
LINE
8
BLACK
6
CONTINUOUS
10
62.6314999999999955
20
-30.2983999999999973
11
62.6314999999999955
21
-29.8983999999999988
0
LINE
8
BLACK
6
CONTINUOUS
10
62.6314999999999955
20
-29.8983999999999988
11
62.646723999999999
21
-29.8218629999999969
0
LINE
8
BLACK
6
CONTINUOUS
10
62.646723999999999
20
-29.8218629999999969
11
62.6900789999999972
21
-29.7569789999999976
0
LINE
8
BLACK
6
CONTINUOUS
10
62.6900789999999972
20
-29.7569789999999976
11
62.7549629999999965
21
-29.7136239999999994
0
LINE
8
BLACK
6
CONTINUOUS
10
62.7549629999999965
20
-29.7136239999999994
11
62.8314999999999984
21
-29.6983999999999995
0
LINE
8
BLACK
6
CONTINUOUS
10
62.8314999999999984
20
-29.6983999999999995
11
63.3814999999999955
21
-29.6983999999999995
0
LINE
8
BLACK
6
CONTINUOUS
10
63.3814999999999955
20
-29.6983999999999995
11
63.4580369999999974
21
-29.7136239999999994
0
LINE
8
BLACK
6
CONTINUOUS
10
65.8580369999999959
20
-29.7136239999999994
11
65.9229210000000023
21
-29.7569789999999976
0
LINE
8
BLACK
6
CONTINUOUS
10
65.9229210000000023
20
-29.7569789999999976
11
65.9662759999999935
21
-29.8218629999999969
0
LINE
8
BLACK
6
CONTINUOUS
10
65.9662759999999935
20
-29.8218629999999969
11
65.9814999999999969
21
-29.8983999999999988
0
LINE
8
BLACK
6
CONTINUOUS
10
65.9814999999999969
20
-29.8983999999999988
11
65.9814999999999969
21
-30.2983999999999973
0
LINE
8
BLACK
6
CONTINUOUS
10
65.9814999999999969
20
-30.2983999999999973
11
65.9662759999999935
21
-30.3749369999999992
0
LINE
8
BLACK
6
CONTINUOUS
10
65.9662759999999935
20
-30.3749369999999992
11
65.9229210000000023
21
-30.4398209999999985
0
LINE
8
BLACK
6
CONTINUOUS
10
65.9229210000000023
20
-30.4398209999999985
11
65.8580369999999959
21
-30.4831760000000003
0
LINE
8
BLACK
6
CONTINUOUS
10
65.8580369999999959
20
-30.4831760000000003
11
65.7814999999999941
21
-30.4984000000000002
0
LINE
8
BLACK
6
CONTINUOUS
10
65.7814999999999941
20
-30.4984000000000002
11
65.2314999999999969
21
-30.4984000000000002
0
LINE
8
BLACK
6
CONTINUOUS
10
65.2314999999999969
20
-30.4984000000000002
11
65.1549629999999951
21
-30.4831760000000003
0
LINE
8
BLACK
6
CONTINUOUS
10
65.1549629999999951
20
-30.4831760000000003
11
65.0900790000000029
21
-30.4398209999999985
0
LINE
8
BLACK
6
CONTINUOUS
10
65.0900790000000029
20
-30.4398209999999985
11
65.0467239999999975
21
-30.3749369999999992
0
LINE
8
BLACK
6
CONTINUOUS
10
65.0467239999999975
20
-30.3749369999999992
11
65.0314999999999941
21
-30.2983999999999973
0
LINE
8
BLACK
6
CONTINUOUS
10
65.0314999999999941
20
-30.2983999999999973
11
65.0314999999999941
21
-29.8983999999999988
0
LINE
8
BLACK
6
CONTINUOUS
10
65.0314999999999941
20
-29.8983999999999988
11
65.0467239999999975
21
-29.8218629999999969
0
LINE
8
BLACK
6
CONTINUOUS
10
65.0467239999999975
20
-29.8218629999999969
11
65.0900790000000029
21
-29.7569789999999976
0
LINE
8
BLACK
6
CONTINUOUS
10
65.0900790000000029
20
-29.7569789999999976
11
65.1549629999999951
21
-29.7136239999999994
0
LINE
8
BLACK
6
CONTINUOUS
10
65.1549629999999951
20
-29.7136239999999994
11
65.2314999999999969
21
-29.6983999999999995
0
LINE
8
BLACK
6
CONTINUOUS
10
65.2314999999999969
20
-29.6983999999999995
11
65.7814999999999941
21
-29.6983999999999995
0
LINE
8
BLACK
6
CONTINUOUS
10
65.7814999999999941
20
-29.6983999999999995
11
65.8580369999999959
21
-29.7136239999999994
0
LINE
8
BLACK
6
CONTINUOUS
10
78.3564999999999969
20
-30.223399999999998
11
77.4564999999999912
21
-30.223399999999998
0
LINE
8
BLACK
6
CONTINUOUS
10
77.4564999999999912
20
-30.223399999999998
11
77.4564999999999912
21
-30.1234000000000002
0
LINE
8
BLACK
6
CONTINUOUS
10
77.4564999999999912
20
-30.1234000000000002
11
77.4064999999999941
21
-30.1234000000000002
0
LINE
8
BLACK
6
CONTINUOUS
10
77.4064999999999941
20
-30.1234000000000002
11
77.4064999999999941
21
-28.5233999999999988
0
LINE
8
BLACK
6
CONTINUOUS
10
77.4064999999999941
20
-28.5233999999999988
11
77.4564999999999912
21
-28.5233999999999988
0
LINE
8
BLACK
6
CONTINUOUS
10
77.4564999999999912
20
-28.5233999999999988
11
77.4564999999999912
21
-28.4233999999999973
0
LINE
8
BLACK
6
CONTINUOUS
10
77.4564999999999912
20
-28.4233999999999973
11
78.3564999999999969
21
-28.4233999999999973
0
LINE
8
BLACK
6
CONTINUOUS
10
78.3564999999999969
20
-28.4233999999999973
11
78.3564999999999969
21
-28.5233999999999988
0
LINE
8
BLACK
6
CONTINUOUS
10
78.3564999999999969
20
-28.5233999999999988
11
78.4064999999999941
21
-28.5233999999999988
0
LINE
8
BLACK
6
CONTINUOUS
10
78.4064999999999941
20
-28.5233999999999988
11
78.4064999999999941
21
-30.1234000000000002
0
LINE
8
BLACK
6
CONTINUOUS
10
78.4064999999999941
20
-30.1234000000000002
11
78.3564999999999969
21
-30.1234000000000002
0
LINE
8
BLACK
6
CONTINUOUS
10
78.3564999999999969
20
-30.1234000000000002
11
78.3564999999999969
21
-30.223399999999998
0
LINE
8
BLACK
6
CONTINUOUS
10
81.496461999999994
20
-29.2750509999999977
11
81.5674300000000017
21
-29.3224699999999991
0
LINE
8
BLACK
6
CONTINUOUS
10
81.5674300000000017
20
-29.3224699999999991
11
81.6148489999999924
21
-29.3934379999999997
0
LINE
8
BLACK
6
CONTINUOUS
10
81.6148489999999924
20
-29.3934379999999997
11
81.6315000000000026
21
-29.4771499999999982
0
LINE
8
BLACK
6
CONTINUOUS
10
81.6315000000000026
20
-29.4771499999999982
11
81.6315000000000026
21
-29.9146499999999982
0
LINE
8
BLACK
6
CONTINUOUS
10
81.6315000000000026
20
-29.9146499999999982
11
81.6148489999999924
21
-29.9983620000000002
0
LINE
8
BLACK
6
CONTINUOUS
10
81.6148489999999924
20
-29.9983620000000002
11
81.5674300000000017
21
-30.0693299999999972
0
LINE
8
BLACK
6
CONTINUOUS
10
81.5674300000000017
20
-30.0693299999999972
11
81.496461999999994
21
-30.1167489999999987
0
LINE
8
BLACK
6
CONTINUOUS
10
81.496461999999994
20
-30.1167489999999987
11
81.4127500000000026
21
-30.1333999999999982
0
LINE
8
BLACK
6
CONTINUOUS
10
81.4127500000000026
20
-30.1333999999999982
11
80.9002499999999998
21
-30.1333999999999982
0
LINE
8
BLACK
6
CONTINUOUS
10
80.9002499999999998
20
-30.1333999999999982
11
80.8165379999999942
21
-30.1167489999999987
0
LINE
8
BLACK
6
CONTINUOUS
10
80.8165379999999942
20
-30.1167489999999987
11
80.7455700000000007
21
-30.0693299999999972
0
LINE
8
BLACK
6
CONTINUOUS
10
80.7455700000000007
20
-30.0693299999999972
11
80.6981509999999957
21
-29.9983620000000002
0
LINE
8
BLACK
6
CONTINUOUS
10
80.6981509999999957
20
-29.9983620000000002
11
80.6814999999999998
21
-29.9146499999999982
0
LINE
8
BLACK
6
CONTINUOUS
10
80.6814999999999998
20
-29.9146499999999982
11
80.6814999999999998
21
-29.4771499999999982
0
LINE
8
BLACK
6
CONTINUOUS
10
80.6814999999999998
20
-29.4771499999999982
11
80.6981509999999957
21
-29.3934379999999997
0
LINE
8
BLACK
6
CONTINUOUS
10
80.6981509999999957
20
-29.3934379999999997
11
80.7455700000000007
21
-29.3224699999999991
0
LINE
8
BLACK
6
CONTINUOUS
10
80.7455700000000007
20
-29.3224699999999991
11
80.8165379999999942
21
-29.2750509999999977
0
LINE
8
BLACK
6
CONTINUOUS
10
80.8165379999999942
20
-29.2750509999999977
11
80.9002499999999998
21
-29.2583999999999982
0
LINE
8
BLACK
6
CONTINUOUS
10
80.9002499999999998
20
-29.2583999999999982
11
81.4127500000000026
21
-29.2583999999999982
0
LINE
8
BLACK
6
CONTINUOUS
10
81.4127500000000026
20
-29.2583999999999982
11
81.496461999999994
21
-29.2750509999999977
0
LINE
8
BLACK
6
CONTINUOUS
10
77.1564999999999941
20
-29.9483999999999995
11
76.7064999999999912
21
-29.9483999999999995
0
LINE
8
BLACK
6
CONTINUOUS
10
76.7064999999999912
20
-29.9483999999999995
11
76.7064999999999912
21
-29.6983999999999995
0
LINE
8
BLACK
6
CONTINUOUS
10
76.7064999999999912
20
-29.6983999999999995
11
77.1564999999999941
21
-29.6983999999999995
0
LINE
8
BLACK
6
CONTINUOUS
10
77.1564999999999941
20
-29.6983999999999995
11
77.1564999999999941
21
-29.9483999999999995
0
LINE
8
BLACK
6
CONTINUOUS
10
79.1064999999999969
20
-29.9483999999999995
11
78.6564999999999941
21
-29.9483999999999995
0
LINE
8
BLACK
6
CONTINUOUS
10
78.6564999999999941
20
-29.9483999999999995
11
78.6564999999999941
21
-29.6983999999999995
0
LINE
8
BLACK
6
CONTINUOUS
10
78.6564999999999941
20
-29.6983999999999995
11
79.1064999999999969
21
-29.6983999999999995
0
LINE
8
BLACK
6
CONTINUOUS
10
79.1064999999999969
20
-29.6983999999999995
11
79.1064999999999969
21
-29.9483999999999995
0
LINE
8
BLACK
6
CONTINUOUS
10
77.1564999999999941
20
-29.4483999999999995
11
76.7064999999999912
21
-29.4483999999999995
0
LINE
8
BLACK
6
CONTINUOUS
10
76.7064999999999912
20
-29.4483999999999995
11
76.7064999999999912
21
-29.1983999999999995
0
LINE
8
BLACK
6
CONTINUOUS
10
76.7064999999999912
20
-29.1983999999999995
11
77.1564999999999941
21
-29.1983999999999995
0
LINE
8
BLACK
6
CONTINUOUS
10
77.1564999999999941
20
-29.1983999999999995
11
77.1564999999999941
21
-29.4483999999999995
0
LINE
8
BLACK
6
CONTINUOUS
10
79.1064999999999969
20
-29.4483999999999995
11
78.6564999999999941
21
-29.4483999999999995
0
LINE
8
BLACK
6
CONTINUOUS
10
78.6564999999999941
20
-29.4483999999999995
11
78.6564999999999941
21
-29.1983999999999995
0
LINE
8
BLACK
6
CONTINUOUS
10
78.6564999999999941
20
-29.1983999999999995
11
79.1064999999999969
21
-29.1983999999999995
0
LINE
8
BLACK
6
CONTINUOUS
10
79.1064999999999969
20
-29.1983999999999995
11
79.1064999999999969
21
-29.4483999999999995
0
LINE
8
BLACK
6
CONTINUOUS
10
73.4026039999999966
20
-28.345526999999997
11
73.4755990000000025
21
-28.3943009999999987
0
LINE
8
BLACK
6
CONTINUOUS
10
73.4755990000000025
20
-28.3943009999999987
11
73.5243729999999971
21
-28.4672959999999975
0
LINE
8
BLACK
6
CONTINUOUS
10
73.5243729999999971
20
-28.4672959999999975
11
73.5414999999999992
21
-28.5533999999999999
0
LINE
8
BLACK
6
CONTINUOUS
10
73.5414999999999992
20
-28.5533999999999999
11
73.5414999999999992
21
-29.0533999999999999
0
LINE
8
BLACK
6
CONTINUOUS
10
73.5414999999999992
20
-29.0533999999999999
11
73.5243729999999971
21
-29.1395039999999987
0
LINE
8
BLACK
6
CONTINUOUS
10
73.5243729999999971
20
-29.1395039999999987
11
73.4755990000000025
21
-29.2124989999999976
0
LINE
8
BLACK
6
CONTINUOUS
10
73.4755990000000025
20
-29.2124989999999976
11
73.4026039999999966
21
-29.2612729999999992
0
LINE
8
BLACK
6
CONTINUOUS
10
73.4026039999999966
20
-29.2612729999999992
11
73.3164999999999907
21
-29.2783999999999978
0
LINE
8
BLACK
6
CONTINUOUS
10
73.3164999999999907
20
-29.2783999999999978
11
72.866500000000002
21
-29.2783999999999978
0
LINE
8
BLACK
6
CONTINUOUS
10
72.866500000000002
20
-29.2783999999999978
11
72.7803959999999961
21
-29.2612729999999992
0
LINE
8
BLACK
6
CONTINUOUS
10
72.7803959999999961
20
-29.2612729999999992
11
72.7074009999999902
21
-29.2124989999999976
0
LINE
8
BLACK
6
CONTINUOUS
10
72.7074009999999902
20
-29.2124989999999976
11
72.6586269999999956
21
-29.1395039999999987
0
LINE
8
BLACK
6
CONTINUOUS
10
72.6586269999999956
20
-29.1395039999999987
11
72.6414999999999935
21
-29.0533999999999999
0
LINE
8
BLACK
6
CONTINUOUS
10
72.6414999999999935
20
-29.0533999999999999
11
72.6414999999999935
21
-28.5533999999999999
0
LINE
8
BLACK
6
CONTINUOUS
10
72.6414999999999935
20
-28.5533999999999999
11
72.6586269999999956
21
-28.4672959999999975
0
LINE
8
BLACK
6
CONTINUOUS
10
72.6586269999999956
20
-28.4672959999999975
11
72.7074009999999902
21
-28.3943009999999987
0
LINE
8
BLACK
6
CONTINUOUS
10
72.7074009999999902
20
-28.3943009999999987
11
72.7803959999999961
21
-28.345526999999997
0
LINE
8
BLACK
6
CONTINUOUS
10
72.7803959999999961
20
-28.345526999999997
11
72.866500000000002
21
-28.3283999999999985
0
LINE
8
BLACK
6
CONTINUOUS
10
72.866500000000002
20
-28.3283999999999985
11
73.3164999999999907
21
-28.3283999999999985
0
LINE
8
BLACK
6
CONTINUOUS
10
73.3164999999999907
20
-28.3283999999999985
11
73.4026039999999966
21
-28.345526999999997
0
LINE
8
BLACK
6
CONTINUOUS
10
74.9526039999999938
20
-28.345526999999997
11
75.0255989999999997
21
-28.3943009999999987
0
LINE
8
BLACK
6
CONTINUOUS
10
75.0255989999999997
20
-28.3943009999999987
11
75.0743729999999942
21
-28.4672959999999975
0
LINE
8
BLACK
6
CONTINUOUS
10
75.0743729999999942
20
-28.4672959999999975
11
75.0914999999999964
21
-28.5533999999999999
0
LINE
8
BLACK
6
CONTINUOUS
10
75.0914999999999964
20
-28.5533999999999999
11
75.0914999999999964
21
-29.0533999999999999
0
LINE
8
BLACK
6
CONTINUOUS
10
75.0914999999999964
20
-29.0533999999999999
11
75.0743729999999942
21
-29.1395039999999987
0
LINE
8
BLACK
6
CONTINUOUS
10
75.0743729999999942
20
-29.1395039999999987
11
75.0255989999999997
21
-29.2124989999999976
0
LINE
8
BLACK
6
CONTINUOUS
10
75.0255989999999997
20
-29.2124989999999976
11
74.9526039999999938
21
-29.2612729999999992
0
LINE
8
BLACK
6
CONTINUOUS
10
74.9526039999999938
20
-29.2612729999999992
11
74.866500000000002
21
-29.2783999999999978
0
LINE
8
BLACK
6
CONTINUOUS
10
74.866500000000002
20
-29.2783999999999978
11
74.4164999999999992
21
-29.2783999999999978
0
LINE
8
BLACK
6
CONTINUOUS
10
74.4164999999999992
20
-29.2783999999999978
11
74.3303959999999933
21
-29.2612729999999992
0
LINE
8
BLACK
6
CONTINUOUS
10
74.3303959999999933
20
-29.2612729999999992
11
74.2574010000000015
21
-29.2124989999999976
0
LINE
8
BLACK
6
CONTINUOUS
10
74.2574010000000015
20
-29.2124989999999976
11
74.2086269999999928
21
-29.1395039999999987
0
LINE
8
BLACK
6
CONTINUOUS
10
74.2086269999999928
20
-29.1395039999999987
11
74.1914999999999907
21
-29.0533999999999999
0
LINE
8
BLACK
6
CONTINUOUS
10
74.1914999999999907
20
-29.0533999999999999
11
74.1914999999999907
21
-28.5533999999999999
0
LINE
8
BLACK
6
CONTINUOUS
10
74.1914999999999907
20
-28.5533999999999999
11
74.2086269999999928
21
-28.4672959999999975
0
LINE
8
BLACK
6
CONTINUOUS
10
74.2086269999999928
20
-28.4672959999999975
11
74.2574010000000015
21
-28.3943009999999987
0
LINE
8
BLACK
6
CONTINUOUS
10
74.2574010000000015
20
-28.3943009999999987
11
74.3303959999999933
21
-28.345526999999997
0
LINE
8
BLACK
6
CONTINUOUS
10
74.3303959999999933
20
-28.345526999999997
11
74.4164999999999992
21
-28.3283999999999985
0
LINE
8
BLACK
6
CONTINUOUS
10
74.4164999999999992
20
-28.3283999999999985
11
74.866500000000002
21
-28.3283999999999985
0
LINE
8
BLACK
6
CONTINUOUS
10
74.866500000000002
20
-28.3283999999999985
11
74.9526039999999938
21
-28.345526999999997
0
LINE
8
BLACK
6
CONTINUOUS
10
77.1564999999999941
20
-28.9483999999999995
11
76.7064999999999912
21
-28.9483999999999995
0
LINE
8
BLACK
6
CONTINUOUS
10
76.7064999999999912
20
-28.9483999999999995
11
76.7064999999999912
21
-28.598399999999998
0
LINE
8
BLACK
6
CONTINUOUS
10
76.7064999999999912
20
-28.598399999999998
11
77.1564999999999941
21
-28.598399999999998
0
LINE
8
BLACK
6
CONTINUOUS
10
77.1564999999999941
20
-28.598399999999998
11
77.1564999999999941
21
-28.9483999999999995
0
LINE
8
BLACK
6
CONTINUOUS
10
79.1064999999999969
20
-28.9483999999999995
11
78.6564999999999941
21
-28.9483999999999995
0
LINE
8
BLACK
6
CONTINUOUS
10
78.6564999999999941
20
-28.9483999999999995
11
78.6564999999999941
21
-28.6983999999999995
0
LINE
8
BLACK
6
CONTINUOUS
10
78.6564999999999941
20
-28.6983999999999995
11
79.1064999999999969
21
-28.6983999999999995
0
LINE
8
BLACK
6
CONTINUOUS
10
79.1064999999999969
20
-28.6983999999999995
11
79.1064999999999969
21
-28.9483999999999995
0
LINE
8
BLACK
6
CONTINUOUS
10
63.4580369999999974
20
-28.0636239999999972
11
63.5229209999999966
21
-28.106978999999999
0
LINE
8
BLACK
6
CONTINUOUS
10
63.5229209999999966
20
-28.106978999999999
11
63.5662759999999949
21
-28.1718629999999983
0
LINE
8
BLACK
6
CONTINUOUS
10
63.5662759999999949
20
-28.1718629999999983
11
63.5814999999999984
21
-28.2484000000000002
0
LINE
8
BLACK
6
CONTINUOUS
10
63.5814999999999984
20
-28.2484000000000002
11
63.5814999999999984
21
-28.6483999999999988
0
LINE
8
BLACK
6
CONTINUOUS
10
63.5814999999999984
20
-28.6483999999999988
11
63.5662759999999949
21
-28.7249369999999971
0
LINE
8
BLACK
6
CONTINUOUS
10
63.5662759999999949
20
-28.7249369999999971
11
63.5229209999999966
21
-28.7898209999999999
0
LINE
8
BLACK
6
CONTINUOUS
10
63.5229209999999966
20
-28.7898209999999999
11
63.4580369999999974
21
-28.8331759999999981
0
LINE
8
BLACK
6
CONTINUOUS
10
63.4580369999999974
20
-28.8331759999999981
11
63.3814999999999955
21
-28.848399999999998
0
LINE
8
BLACK
6
CONTINUOUS
10
63.3814999999999955
20
-28.848399999999998
11
62.8314999999999984
21
-28.848399999999998
0
LINE
8
BLACK
6
CONTINUOUS
10
62.8314999999999984
20
-28.848399999999998
11
62.7549629999999965
21
-28.8331759999999981
0
LINE
8
BLACK
6
CONTINUOUS
10
62.7549629999999965
20
-28.8331759999999981
11
62.6900789999999972
21
-28.7898209999999999
0
LINE
8
BLACK
6
CONTINUOUS
10
62.6900789999999972
20
-28.7898209999999999
11
62.646723999999999
21
-28.7249369999999971
0
LINE
8
BLACK
6
CONTINUOUS
10
62.646723999999999
20
-28.7249369999999971
11
62.6314999999999955
21
-28.6483999999999988
0
LINE
8
BLACK
6
CONTINUOUS
10
62.6314999999999955
20
-28.6483999999999988
11
62.6314999999999955
21
-28.2484000000000002
0
LINE
8
BLACK
6
CONTINUOUS
10
62.6314999999999955
20
-28.2484000000000002
11
62.646723999999999
21
-28.1718629999999983
0
LINE
8
BLACK
6
CONTINUOUS
10
62.646723999999999
20
-28.1718629999999983
11
62.6900789999999972
21
-28.106978999999999
0
LINE
8
BLACK
6
CONTINUOUS
10
62.6900789999999972
20
-28.106978999999999
11
62.7549629999999965
21
-28.0636239999999972
0
LINE
8
BLACK
6
CONTINUOUS
10
62.7549629999999965
20
-28.0636239999999972
11
62.8314999999999984
21
-28.0483999999999973
0
LINE
8
BLACK
6
CONTINUOUS
10
62.8314999999999984
20
-28.0483999999999973
11
63.3814999999999955
21
-28.0483999999999973
0
LINE
8
BLACK
6
CONTINUOUS
10
63.3814999999999955
20
-28.0483999999999973
11
63.4580369999999974
21
-28.0636239999999972
0
LINE
8
BLACK
6
CONTINUOUS
10
65.8580369999999959
20
-28.0636239999999972
11
65.9229210000000023
21
-28.106978999999999
0
LINE
8
BLACK
6
CONTINUOUS
10
65.9229210000000023
20
-28.106978999999999
11
65.9662759999999935
21
-28.1718629999999983
0
LINE
8
BLACK
6
CONTINUOUS
10
65.9662759999999935
20
-28.1718629999999983
11
65.9814999999999969
21
-28.2484000000000002
0
LINE
8
BLACK
6
CONTINUOUS
10
65.9814999999999969
20
-28.2484000000000002
11
65.9814999999999969
21
-28.6483999999999988
0
LINE
8
BLACK
6
CONTINUOUS
10
65.9814999999999969
20
-28.6483999999999988
11
65.9662759999999935
21
-28.7249369999999971
0
LINE
8
BLACK
6
CONTINUOUS
10
65.9662759999999935
20
-28.7249369999999971
11
65.9229210000000023
21
-28.7898209999999999
0
LINE
8
BLACK
6
CONTINUOUS
10
65.9229210000000023
20
-28.7898209999999999
11
65.8580369999999959
21
-28.8331759999999981
0
LINE
8
BLACK
6
CONTINUOUS
10
65.8580369999999959
20
-28.8331759999999981
11
65.7814999999999941
21
-28.848399999999998
0
LINE
8
BLACK
6
CONTINUOUS
10
65.7814999999999941
20
-28.848399999999998
11
65.2314999999999969
21
-28.848399999999998
0
LINE
8
BLACK
6
CONTINUOUS
10
65.2314999999999969
20
-28.848399999999998
11
65.1549629999999951
21
-28.8331759999999981
0
LINE
8
BLACK
6
CONTINUOUS
10
65.1549629999999951
20
-28.8331759999999981
11
65.0900790000000029
21
-28.7898209999999999
0
LINE
8
BLACK
6
CONTINUOUS
10
65.0900790000000029
20
-28.7898209999999999
11
65.0467239999999975
21
-28.7249369999999971
0
LINE
8
BLACK
6
CONTINUOUS
10
65.0467239999999975
20
-28.7249369999999971
11
65.0314999999999941
21
-28.6483999999999988
0
LINE
8
BLACK
6
CONTINUOUS
10
65.0314999999999941
20
-28.6483999999999988
11
65.0314999999999941
21
-28.2484000000000002
0
LINE
8
BLACK
6
CONTINUOUS
10
65.0314999999999941
20
-28.2484000000000002
11
65.0467239999999975
21
-28.1718629999999983
0
LINE
8
BLACK
6
CONTINUOUS
10
65.0467239999999975
20
-28.1718629999999983
11
65.0900790000000029
21
-28.106978999999999
0
LINE
8
BLACK
6
CONTINUOUS
10
65.0900790000000029
20
-28.106978999999999
11
65.1549629999999951
21
-28.0636239999999972
0
LINE
8
BLACK
6
CONTINUOUS
10
65.1549629999999951
20
-28.0636239999999972
11
65.2314999999999969
21
-28.0483999999999973
0
LINE
8
BLACK
6
CONTINUOUS
10
65.2314999999999969
20
-28.0483999999999973
11
65.7814999999999941
21
-28.0483999999999973
0
LINE
8
BLACK
6
CONTINUOUS
10
65.7814999999999941
20
-28.0483999999999973
11
65.8580369999999959
21
-28.0636239999999972
  0
ENDSEC
  0
EOF
